<?xml version="1.0" encoding="UTF-8" standalone="no"?>
<!DOCTYPE svg PUBLIC "-//W3C//DTD SVG 1.1//EN"
 "http://www.w3.org/Graphics/SVG/1.1/DTD/svg11.dtd">
<!-- Generated by graphviz version 2.38.0 (20140413.2041)
 -->
<!-- Title: classDiagram Pages: 1 -->
<svg width="262pt" height="199pt"
 viewBox="0.00 0.00 261.50 199.00" xmlns="http://www.w3.org/2000/svg" xmlns:xlink="http://www.w3.org/1999/xlink">
<g id="graph0" class="graph" transform="scale(1 1) rotate(0) translate(4 195)">
<title>classDiagram</title>
<polygon fill="white" stroke="none" points="-4,4 -4,-195 257.5,-195 257.5,4 -4,4"/>
<!-- animal -->
<g id="node1" class="node"><title>animal</title>
<polygon fill="none" stroke="black" points="61.5,-106.5 61.5,-190.5 186.5,-190.5 186.5,-106.5 61.5,-106.5"/>
<text text-anchor="middle" x="124" y="-175.3" font-family="Helvetia" font-size="14.00">Animal</text>
<polyline fill="none" stroke="black" points="61.5,-167.5 186.5,-167.5 "/>
<text text-anchor="start" x="69.5" y="-152.3" font-family="Helvetia" font-size="14.00">+ name : string</text>
<text text-anchor="start" x="69.5" y="-137.3" font-family="Helvetia" font-size="14.00">+ age : int</text>
<polyline fill="none" stroke="black" points="61.5,-129.5 186.5,-129.5 "/>
<text text-anchor="start" x="69.5" y="-114.3" font-family="Helvetia" font-size="14.00">+ die() : void</text>
</g>
<!-- dog -->
<g id="node2" class="node"><title>dog</title>
<polygon fill="none" stroke="black" points="0,-0.5 0,-69.5 112,-69.5 112,-0.5 0,-0.5"/>
<text text-anchor="middle" x="56" y="-54.3" font-family="Helvetia" font-size="14.00">Dog</text>
<polyline fill="none" stroke="black" points="0,-46.5 112,-46.5 "/>
<text text-anchor="middle" x="56" y="-31.3" font-family="Helvetia" font-size="14.00"> </text>
<polyline fill="none" stroke="black" points="0,-23.5 112,-23.5 "/>
<text text-anchor="start" x="8" y="-8.3" font-family="Helvetia" font-size="14.00">+bark() : void</text>
</g>
<!-- animal&#45;&gt;dog -->
<g id="edge1" class="edge"><title>animal&#45;&gt;dog</title>
<path fill="none" stroke="black" d="M93.6334,-97.7077C87.8643,-88.2482 81.9541,-78.5571 76.5774,-69.7409"/>
<polygon fill="none" stroke="black" points="90.6776,-99.5831 98.8725,-106.298 96.6539,-95.9384 90.6776,-99.5831"/>
</g>
<!-- cat -->
<g id="node3" class="node"><title>cat</title>
<polygon fill="none" stroke="black" points="130.5,-0.5 130.5,-69.5 253.5,-69.5 253.5,-0.5 130.5,-0.5"/>
<text text-anchor="middle" x="192" y="-54.3" font-family="Helvetia" font-size="14.00">Cat</text>
<polyline fill="none" stroke="black" points="130.5,-46.5 253.5,-46.5 "/>
<text text-anchor="middle" x="192" y="-31.3" font-family="Helvetia" font-size="14.00"> </text>
<polyline fill="none" stroke="black" points="130.5,-23.5 253.5,-23.5 "/>
<text text-anchor="start" x="138.5" y="-8.3" font-family="Helvetia" font-size="14.00">+meow() : void</text>
</g>
<!-- animal&#45;&gt;cat -->
<g id="edge2" class="edge"><title>animal&#45;&gt;cat</title>
<path fill="none" stroke="black" d="M154.367,-97.7077C160.136,-88.2482 166.046,-78.5571 171.423,-69.7409"/>
<polygon fill="none" stroke="black" points="151.346,-95.9384 149.127,-106.298 157.322,-99.5831 151.346,-95.9384"/>
</g>
</g>
</svg>
