<?xml version="1.0" encoding="UTF-8" standalone="no"?>
<!DOCTYPE svg PUBLIC "-//W3C//DTD SVG 1.1//EN"
 "http://www.w3.org/Graphics/SVG/1.1/DTD/svg11.dtd">
<!-- Generated by graphviz version 2.38.0 (20140413.2041)
 -->
<!-- Title: ER_Diagram Pages: 1 -->
<svg width="533pt" height="314pt"
 viewBox="0.00 0.00 533.37 314.00" xmlns="http://www.w3.org/2000/svg" xmlns:xlink="http://www.w3.org/1999/xlink">
<g id="graph0" class="graph" transform="scale(1 1) rotate(0) translate(4 310)">
<title>ER_Diagram</title>
<polygon fill="#e8e8e8" stroke="none" points="-4,4 -4,-310 529.373,-310 529.373,4 -4,4"/>
<!-- student_number -->
<g id="node1" class="node"><title>student_number</title>
<ellipse fill="#5588a3" stroke="#5588a3" cx="440.23" cy="-126" rx="85.2851" ry="18"/>
<text text-anchor="middle" x="440.23" y="-122.3" font-family="Helvetia" font-size="14.00" fill="#ffffff">student_number</text>
</g>
<!-- student_name -->
<g id="node2" class="node"><title>student_name</title>
<ellipse fill="#5588a3" stroke="#5588a3" cx="440.23" cy="-72" rx="75.2868" ry="18"/>
<text text-anchor="middle" x="440.23" y="-68.3" font-family="Helvetia" font-size="14.00" fill="#ffffff">student_name</text>
</g>
<!-- joined_on -->
<g id="node3" class="node"><title>joined_on</title>
<ellipse fill="#5588a3" stroke="#5588a3" cx="440.23" cy="-18" rx="53.8905" ry="18"/>
<text text-anchor="middle" x="440.23" y="-14.3" font-family="Helvetia" font-size="14.00" fill="#ffffff">joined_on</text>
</g>
<!-- course_name -->
<g id="node4" class="node"><title>course_name</title>
<ellipse fill="#5588a3" stroke="#5588a3" cx="69.5438" cy="-288" rx="69.5877" ry="18"/>
<text text-anchor="middle" x="69.5438" y="-284.3" font-family="Helvetia" font-size="14.00" fill="#ffffff">course_name</text>
</g>
<!-- courses -->
<g id="node9" class="node"><title>courses</title>
<polygon fill="#145374" stroke="#145374" points="319.088,-252 175.088,-252 175.088,-216 319.088,-216 319.088,-252"/>
<text text-anchor="middle" x="247.088" y="-230.3" font-family="Helvetia" font-size="14.00" fill="#ffffff">courses</text>
</g>
<!-- course_name&#45;&#45;courses -->
<g id="edge1" class="edge"><title>course_name&#45;&#45;courses:w</title>
<path fill="none" stroke="#000000" stroke-width="1.2" d="M101.627,-271.944C132.444,-256.027 175.088,-234 175.088,-234"/>
</g>
<!-- started_on -->
<g id="node5" class="node"><title>started_on</title>
<ellipse fill="#5588a3" stroke="#5588a3" cx="69.5438" cy="-234" rx="59.2899" ry="18"/>
<text text-anchor="middle" x="69.5438" y="-230.3" font-family="Helvetia" font-size="14.00" fill="#ffffff">started_on</text>
</g>
<!-- started_on&#45;&#45;courses -->
<g id="edge2" class="edge"><title>started_on&#45;&#45;courses:w</title>
<path fill="none" stroke="#000000" stroke-width="1.2" d="M128.929,-234C152.876,-234 175.088,-234 175.088,-234"/>
</g>
<!-- finished_on -->
<g id="node6" class="node"><title>finished_on</title>
<ellipse fill="#5588a3" stroke="#5588a3" cx="69.5438" cy="-180" rx="61.99" ry="18"/>
<text text-anchor="middle" x="69.5438" y="-176.3" font-family="Helvetia" font-size="14.00" fill="#ffffff">finished_on</text>
</g>
<!-- finished_on&#45;&#45;courses -->
<g id="edge3" class="edge"><title>finished_on&#45;&#45;courses:w</title>
<path fill="none" stroke="#000000" stroke-width="1.2" d="M100.782,-195.619C131.658,-211.567 175.088,-234 175.088,-234"/>
</g>
<!-- value -->
<g id="node7" class="node"><title>value</title>
<ellipse fill="#5588a3" stroke="#5588a3" cx="440.23" cy="-180" rx="35.194" ry="18"/>
<text text-anchor="middle" x="440.23" y="-176.3" font-family="Helvetia" font-size="14.00" fill="#ffffff">value</text>
</g>
<!-- passed -->
<g id="node8" class="node"><title>passed</title>
<ellipse fill="#5588a3" stroke="#5588a3" cx="440.23" cy="-234" rx="40.8928" ry="18"/>
<text text-anchor="middle" x="440.23" y="-230.3" font-family="Helvetia" font-size="14.00" fill="#ffffff">passed</text>
</g>
<!-- scores -->
<g id="node11" class="node"><title>scores</title>
<polygon fill="#00334e" stroke="#00334e" points="247.088,-198 175.088,-180 247.088,-162 319.088,-180 247.088,-198"/>
<text text-anchor="middle" x="247.088" y="-176.3" font-family="Helvetia" font-size="14.00" fill="#ffffff">scores</text>
</g>
<!-- courses&#45;&#45;scores -->
<g id="edge9" class="edge"><title>courses&#45;&#45;scores</title>
<path fill="none" stroke="#000000" stroke-width="1.2" d="M247.088,-215.79C247.088,-209.907 247.088,-204.024 247.088,-198.141"/>
</g>
<!-- students -->
<g id="node10" class="node"><title>students</title>
<polygon fill="#145374" stroke="#145374" points="319.088,-117 175.088,-117 175.088,-81 319.088,-81 319.088,-117"/>
<text text-anchor="middle" x="247.088" y="-95.3" font-family="Helvetia" font-size="14.00" fill="#ffffff">students</text>
</g>
<!-- students&#45;&#45;student_number -->
<g id="edge6" class="edge"><title>students:e&#45;&#45;student_number</title>
<path fill="none" stroke="#000000" stroke-width="1.2" d="M319.088,-99C319.088,-99 350.548,-106.07 381.27,-112.975"/>
</g>
<!-- students&#45;&#45;student_name -->
<g id="edge7" class="edge"><title>students:e&#45;&#45;student_name</title>
<path fill="none" stroke="#000000" stroke-width="1.2" d="M319.088,-99C319.088,-99 352.995,-91.3799 384.783,-84.236"/>
</g>
<!-- students&#45;&#45;joined_on -->
<g id="edge8" class="edge"><title>students:e&#45;&#45;joined_on</title>
<path fill="none" stroke="#000000" stroke-width="1.2" d="M319.088,-99C319.088,-99 380.481,-57.6089 415.494,-34.003"/>
</g>
<!-- scores&#45;&#45;value -->
<g id="edge4" class="edge"><title>scores:e&#45;&#45;value</title>
<path fill="none" stroke="#000000" stroke-width="1.2" d="M319.088,-180C319.088,-180 369.604,-180 405.123,-180"/>
</g>
<!-- scores&#45;&#45;passed -->
<g id="edge5" class="edge"><title>scores:e&#45;&#45;passed</title>
<path fill="none" stroke="#000000" stroke-width="1.2" d="M319.088,-180C319.088,-180 375.552,-205.379 411.062,-221.339"/>
</g>
<!-- scores&#45;&#45;students -->
<g id="edge10" class="edge"><title>scores&#45;&#45;students</title>
<path fill="none" stroke="#000000" stroke-width="1.2" d="M247.088,-161.799C247.088,-146.878 247.088,-131.957 247.088,-117.035"/>
</g>
</g>
</svg>
