<?xml version="1.0" encoding="UTF-8" standalone="no"?>
<!DOCTYPE svg PUBLIC "-//W3C//DTD SVG 1.1//EN"
 "http://www.w3.org/Graphics/SVG/1.1/DTD/svg11.dtd">
<!-- Generated by graphviz version 2.38.0 (20140413.2041)
 -->
<!-- Title: graphShapes Pages: 1 -->
<svg width="688pt" height="1140pt"
 viewBox="0.00 0.00 688.29 1140.28" xmlns="http://www.w3.org/2000/svg" xmlns:xlink="http://www.w3.org/1999/xlink">
<g id="graph0" class="graph" transform="scale(1 1) rotate(0) translate(4 1136.28)">
<title>graphShapes</title>
<polygon fill="white" stroke="none" points="-4,4 -4,-1136.28 684.294,-1136.28 684.294,4 -4,4"/>
<!-- record -->
<g id="node1" class="node"><title>record</title>
<polygon fill="none" stroke="black" points="45.7935,-1095.78 45.7935,-1131.78 99.7935,-1131.78 99.7935,-1095.78 45.7935,-1095.78"/>
<text text-anchor="middle" x="72.7935" y="-1110.08" font-family="Times New Roman,serif" font-size="14.00">record</text>
</g>
<!-- Mrecord -->
<g id="node2" class="node"><title>Mrecord</title>
<path fill="none" stroke="black" d="M52.2935,-1022.78C52.2935,-1022.78 93.2935,-1022.78 93.2935,-1022.78 99.2935,-1022.78 105.294,-1028.78 105.294,-1034.78 105.294,-1034.78 105.294,-1046.78 105.294,-1046.78 105.294,-1052.78 99.2935,-1058.78 93.2935,-1058.78 93.2935,-1058.78 52.2935,-1058.78 52.2935,-1058.78 46.2935,-1058.78 40.2935,-1052.78 40.2935,-1046.78 40.2935,-1046.78 40.2935,-1034.78 40.2935,-1034.78 40.2935,-1028.78 46.2935,-1022.78 52.2935,-1022.78"/>
<text text-anchor="middle" x="72.7935" y="-1037.08" font-family="Times New Roman,serif" font-size="14.00">Mrecord</text>
</g>
<!-- record&#45;&gt;Mrecord -->
<!-- box -->
<g id="node3" class="node"><title>box</title>
<polygon fill="none" stroke="black" points="99.7935,-986.278 45.7935,-986.278 45.7935,-950.278 99.7935,-950.278 99.7935,-986.278"/>
<text text-anchor="middle" x="72.7935" y="-964.578" font-family="Times New Roman,serif" font-size="14.00">box</text>
</g>
<!-- Mrecord&#45;&gt;box -->
<!-- polygon -->
<g id="node4" class="node"><title>polygon</title>
<polygon fill="none" stroke="black" points="103.794,-899.778 41.7935,-899.778 41.7935,-863.778 103.794,-863.778 103.794,-899.778"/>
<text text-anchor="middle" x="72.7935" y="-878.078" font-family="Times New Roman,serif" font-size="14.00">polygon</text>
</g>
<!-- box&#45;&gt;polygon -->
<!-- ellipse -->
<g id="node5" class="node"><title>ellipse</title>
<ellipse fill="none" stroke="black" cx="72.7935" cy="-774.931" rx="33.2948" ry="18"/>
<text text-anchor="middle" x="72.7935" y="-771.231" font-family="Times New Roman,serif" font-size="14.00">ellipse</text>
</g>
<!-- polygon&#45;&gt;ellipse -->
<!-- oval -->
<g id="node6" class="node"><title>oval</title>
<ellipse fill="none" stroke="black" cx="72.7935" cy="-682.585" rx="27" ry="18"/>
<text text-anchor="middle" x="72.7935" y="-678.885" font-family="Times New Roman,serif" font-size="14.00">oval</text>
</g>
<!-- ellipse&#45;&gt;oval -->
<!-- circle -->
<g id="node7" class="node"><title>circle</title>
<ellipse fill="none" stroke="black" cx="72.7935" cy="-598.037" rx="30.5947" ry="30.5947"/>
<text text-anchor="middle" x="72.7935" y="-594.337" font-family="Times New Roman,serif" font-size="14.00">circle</text>
</g>
<!-- oval&#45;&gt;circle -->
<!-- point -->
<g id="node8" class="node"><title>point</title>
<ellipse fill="black" stroke="black" cx="72.7935" cy="-504.99" rx="1.8" ry="1.8"/>
</g>
<!-- circle&#45;&gt;point -->
<!-- egg -->
<g id="node9" class="node"><title>egg</title>
<polygon fill="none" stroke="black" points="75.4761,-365.294 77.2521,-365.393 79.0098,-365.54 80.742,-365.736 82.4416,-365.98 84.1018,-366.272 85.7161,-366.61 87.2782,-366.993 88.7821,-367.421 90.2223,-367.892 91.5936,-368.406 92.8912,-368.96 94.1108,-369.553 95.2485,-370.184 96.3009,-370.85 97.2653,-371.551 98.1391,-372.284 98.9205,-373.046 99.6081,-373.837 100.201,-374.653 100.699,-375.493 101.102,-376.354 101.411,-377.235 101.626,-378.131 101.749,-379.042 101.783,-379.964 101.728,-380.895 101.587,-381.832 101.365,-382.774 101.062,-383.716 100.684,-384.658 100.232,-385.595 99.7117,-386.526 99.126,-387.449 98.4788,-388.359 97.7742,-389.256 97.0161,-390.136 96.2083,-390.997 95.3549,-391.837 94.4594,-392.653 93.5258,-393.444 92.5575,-394.207 91.5579,-394.939 90.5304,-395.64 89.4779,-396.306 88.4034,-396.937 87.3096,-397.53 86.1989,-398.084 85.0736,-398.598 83.9359,-399.069 82.7874,-399.497 81.6301,-399.881 80.4653,-400.218 79.2944,-400.51 78.1186,-400.754 76.939,-400.95 75.7566,-401.097 74.5721,-401.196 73.3865,-401.245 72.2006,-401.245 71.015,-401.196 69.8305,-401.097 68.6481,-400.95 67.4685,-400.754 66.2927,-400.51 65.1218,-400.218 63.957,-399.881 62.7996,-399.497 61.6512,-399.069 60.5134,-398.598 59.3882,-398.084 58.2775,-397.53 57.1836,-396.937 56.1092,-396.306 55.0567,-395.64 54.0292,-394.939 53.0296,-394.207 52.0613,-393.444 51.1276,-392.653 50.2322,-391.837 49.3787,-390.997 48.571,-390.136 47.8129,-389.256 47.1083,-388.359 46.4611,-387.449 45.8754,-386.526 45.3549,-385.595 44.9035,-384.658 44.5249,-383.716 44.2225,-382.774 43.9996,-381.832 43.8594,-380.895 43.8046,-379.964 43.8378,-379.042 43.9611,-378.131 44.1764,-377.235 44.485,-376.354 44.888,-375.493 45.386,-374.653 45.979,-373.837 46.6666,-373.046 47.448,-372.284 48.3218,-371.551 49.2862,-370.85 50.3386,-370.184 51.4763,-369.553 52.6959,-368.96 53.9935,-368.406 55.3648,-367.892 56.805,-367.421 58.3089,-366.993 59.871,-366.61 61.4853,-366.272 63.1455,-365.98 64.8451,-365.736 66.5772,-365.54 68.3349,-365.393 70.111,-365.294 71.8981,-365.245 73.689,-365.245 75.4761,-365.294"/>
<text text-anchor="middle" x="72.7935" y="-379.545" font-family="Times New Roman,serif" font-size="14.00">egg</text>
</g>
<!-- point&#45;&gt;egg -->
<!-- triangle -->
<g id="node10" class="node"><title>triangle</title>
<polygon fill="none" stroke="black" points="72.7935,-288 0.205875,-253.5 145.381,-253.5 72.7935,-288"/>
<text text-anchor="middle" x="72.7935" y="-261.3" font-family="Times New Roman,serif" font-size="14.00">triangle</text>
</g>
<!-- egg&#45;&gt;triangle -->
<!-- plaintext -->
<g id="node11" class="node"><title>plaintext</title>
<text text-anchor="middle" x="72.7935" y="-176.3" font-family="Times New Roman,serif" font-size="14.00">plaintext</text>
</g>
<!-- triangle&#45;&gt;plaintext -->
<!-- plain -->
<g id="node12" class="node"><title>plain</title>
<polygon fill="none" stroke="black" points="99.7935,-113 45.7935,-113 45.7935,-77 99.7935,-77 99.7935,-113"/>
<text text-anchor="middle" x="72.7935" y="-91.3" font-family="Times New Roman,serif" font-size="14.00">plain</text>
</g>
<!-- plaintext&#45;&gt;plain -->
<!-- diamond -->
<g id="node13" class="node"><title>diamond</title>
<polygon fill="none" stroke="black" points="237.794,-1131.78 177.802,-1113.78 237.794,-1095.78 297.785,-1113.78 237.794,-1131.78"/>
<text text-anchor="middle" x="237.794" y="-1110.08" font-family="Times New Roman,serif" font-size="14.00">diamond</text>
</g>
<!-- trapezium -->
<g id="node14" class="node"><title>trapezium</title>
<polygon fill="none" stroke="black" points="275.767,-1058.78 199.82,-1058.78 172.772,-1022.78 302.815,-1022.78 275.767,-1058.78"/>
<text text-anchor="middle" x="237.794" y="-1037.08" font-family="Times New Roman,serif" font-size="14.00">trapezium</text>
</g>
<!-- diamond&#45;&gt;trapezium -->
<!-- parallelogram -->
<g id="node15" class="node"><title>parallelogram</title>
<polygon fill="none" stroke="black" points="324.729,-986.278 186.434,-986.278 150.858,-950.278 289.153,-950.278 324.729,-986.278"/>
<text text-anchor="middle" x="237.794" y="-964.578" font-family="Times New Roman,serif" font-size="14.00">parallelogram</text>
</g>
<!-- trapezium&#45;&gt;parallelogram -->
<!-- house -->
<g id="node16" class="node"><title>house</title>
<polygon fill="none" stroke="black" points="278.132,-887.34 237.794,-899.778 197.456,-887.34 197.493,-867.216 278.094,-867.216 278.132,-887.34"/>
<text text-anchor="middle" x="237.794" y="-878.078" font-family="Times New Roman,serif" font-size="14.00">house</text>
</g>
<!-- parallelogram&#45;&gt;house -->
<!-- pentagon -->
<g id="node17" class="node"><title>pentagon</title>
<polygon fill="none" stroke="black" points="292.553,-780.494 237.794,-792.931 183.035,-780.494 203.951,-760.369 271.636,-760.369 292.553,-780.494"/>
<text text-anchor="middle" x="237.794" y="-771.231" font-family="Times New Roman,serif" font-size="14.00">pentagon</text>
</g>
<!-- house&#45;&gt;pentagon -->
<!-- hexagon -->
<g id="node18" class="node"><title>hexagon</title>
<polygon fill="none" stroke="black" points="284.856,-682.585 261.325,-700.585 214.262,-700.585 190.731,-682.585 214.262,-664.585 261.325,-664.585 284.856,-682.585"/>
<text text-anchor="middle" x="237.794" y="-678.885" font-family="Times New Roman,serif" font-size="14.00">hexagon</text>
</g>
<!-- pentagon&#45;&gt;hexagon -->
<!-- septagon -->
<g id="node19" class="node"><title>septagon</title>
<polygon fill="none" stroke="black" points="285.959,-594.032 276.419,-609.26 237.794,-616.037 199.168,-609.26 189.628,-594.032 216.358,-581.82 259.229,-581.82 285.959,-594.032"/>
<text text-anchor="middle" x="237.794" y="-594.337" font-family="Times New Roman,serif" font-size="14.00">septagon</text>
</g>
<!-- hexagon&#45;&gt;septagon -->
<!-- octagon -->
<g id="node20" class="node"><title>octagon</title>
<polygon fill="none" stroke="black" points="281.527,-497.534 281.527,-512.446 255.909,-522.99 219.679,-522.99 194.06,-512.446 194.06,-497.534 219.679,-486.99 255.909,-486.99 281.527,-497.534"/>
<text text-anchor="middle" x="237.794" y="-501.29" font-family="Times New Roman,serif" font-size="14.00">octagon</text>
</g>
<!-- septagon&#45;&gt;octagon -->
<!-- doublecircle -->
<g id="node21" class="node"><title>doublecircle</title>
<ellipse fill="none" stroke="black" cx="237.794" cy="-383.245" rx="55.4746" ry="55.4746"/>
<ellipse fill="none" stroke="black" cx="237.794" cy="-383.245" rx="59.4912" ry="59.4912"/>
<text text-anchor="middle" x="237.794" y="-379.545" font-family="Times New Roman,serif" font-size="14.00">doublecircle</text>
</g>
<!-- octagon&#45;&gt;doublecircle -->
<!-- doubleoctagon -->
<g id="node22" class="node"><title>doubleoctagon</title>
<polygon fill="none" stroke="black" points="308,-257.544 308,-272.456 266.874,-283 208.713,-283 167.587,-272.456 167.587,-257.544 208.713,-247 266.874,-247 308,-257.544"/>
<polygon fill="none" stroke="black" points="311.992,-254.439 311.992,-275.561 267.377,-287 208.21,-287 163.595,-275.561 163.595,-254.439 208.21,-243 267.377,-243 311.992,-254.439"/>
<text text-anchor="middle" x="237.794" y="-261.3" font-family="Times New Roman,serif" font-size="14.00">doubleoctagon</text>
</g>
<!-- doublecircle&#45;&gt;doubleoctagon -->
<!-- tripleoctagon -->
<g id="node23" class="node"><title>tripleoctagon</title>
<polygon fill="none" stroke="black" points="300.503,-172.544 300.503,-187.456 263.769,-198 211.819,-198 175.084,-187.456 175.084,-172.544 211.819,-162 263.769,-162 300.503,-172.544"/>
<polygon fill="none" stroke="black" points="304.509,-169.532 304.509,-190.468 264.333,-202 211.254,-202 171.078,-190.468 171.078,-169.532 211.254,-158 264.333,-158 304.509,-169.532"/>
<polygon fill="none" stroke="black" points="308.515,-166.52 308.515,-193.48 264.897,-206 210.69,-206 167.072,-193.48 167.072,-166.52 210.69,-154 264.897,-154 308.515,-166.52"/>
<text text-anchor="middle" x="237.794" y="-176.3" font-family="Times New Roman,serif" font-size="14.00">tripleoctagon</text>
</g>
<!-- doubleoctagon&#45;&gt;tripleoctagon -->
<!-- invtriangle -->
<g id="node24" class="node"><title>invtriangle</title>
<polygon fill="none" stroke="black" points="237.794,-72 332.577,-106.5 143.01,-106.5 237.794,-72"/>
<text text-anchor="middle" x="237.794" y="-91.3" font-family="Times New Roman,serif" font-size="14.00">invtriangle</text>
</g>
<!-- tripleoctagon&#45;&gt;invtriangle -->
<!-- invtrapezium -->
<g id="node25" class="node"><title>invtrapezium</title>
<polygon fill="none" stroke="black" points="366.111,-1095.78 459.476,-1095.78 492.727,-1131.78 332.86,-1131.78 366.111,-1095.78"/>
<text text-anchor="middle" x="412.794" y="-1110.08" font-family="Times New Roman,serif" font-size="14.00">invtrapezium</text>
</g>
<!-- invhouse -->
<g id="node26" class="node"><title>invhouse</title>
<polygon fill="none" stroke="black" points="359.748,-1035.22 412.794,-1022.78 465.839,-1035.22 465.789,-1055.34 359.798,-1055.34 359.748,-1035.22"/>
<text text-anchor="middle" x="412.794" y="-1037.08" font-family="Times New Roman,serif" font-size="14.00">invhouse</text>
</g>
<!-- invtrapezium&#45;&gt;invhouse -->
<!-- Mdiamond -->
<g id="node27" class="node"><title>Mdiamond</title>
<polygon fill="none" stroke="black" points="412.794,-986.278 342.243,-968.278 412.794,-950.278 483.344,-968.278 412.794,-986.278"/>
<polyline fill="none" stroke="black" points="353.87,-971.245 353.87,-965.311 "/>
<polyline fill="none" stroke="black" points="401.166,-953.245 424.421,-953.245 "/>
<polyline fill="none" stroke="black" points="471.717,-965.311 471.717,-971.245 "/>
<polyline fill="none" stroke="black" points="424.421,-983.311 401.166,-983.311 "/>
<text text-anchor="middle" x="412.794" y="-964.578" font-family="Times New Roman,serif" font-size="14.00">Mdiamond</text>
</g>
<!-- invhouse&#45;&gt;Mdiamond -->
<!-- Msquare -->
<g id="node28" class="node"><title>Msquare</title>
<polygon fill="none" stroke="black" points="445.294,-914.278 380.294,-914.278 380.294,-849.278 445.294,-849.278 445.294,-914.278"/>
<polyline fill="none" stroke="black" points="392.294,-914.278 380.294,-902.278 "/>
<polyline fill="none" stroke="black" points="380.294,-861.278 392.294,-849.278 "/>
<polyline fill="none" stroke="black" points="433.294,-849.278 445.294,-861.278 "/>
<polyline fill="none" stroke="black" points="445.294,-902.278 433.294,-914.278 "/>
<text text-anchor="middle" x="412.794" y="-878.078" font-family="Times New Roman,serif" font-size="14.00">Msquare</text>
</g>
<!-- Mdiamond&#45;&gt;Msquare -->
<!-- Mcircle -->
<g id="node29" class="node"><title>Mcircle</title>
<ellipse fill="none" stroke="black" cx="412.794" cy="-774.931" rx="38.1938" ry="38.1938"/>
<polyline fill="none" stroke="black" points="438.156,-803.691 387.431,-803.691 "/>
<polyline fill="none" stroke="black" points="438.156,-746.171 387.431,-746.171 "/>
<text text-anchor="middle" x="412.794" y="-771.231" font-family="Times New Roman,serif" font-size="14.00">Mcircle</text>
</g>
<!-- Msquare&#45;&gt;Mcircle -->
<!-- rect -->
<g id="node30" class="node"><title>rect</title>
<polygon fill="none" stroke="black" points="439.794,-700.585 385.794,-700.585 385.794,-664.585 439.794,-664.585 439.794,-700.585"/>
<text text-anchor="middle" x="412.794" y="-678.885" font-family="Times New Roman,serif" font-size="14.00">rect</text>
</g>
<!-- Mcircle&#45;&gt;rect -->
<!-- rectangle -->
<g id="node31" class="node"><title>rectangle</title>
<polygon fill="none" stroke="black" points="445.794,-616.037 379.794,-616.037 379.794,-580.037 445.794,-580.037 445.794,-616.037"/>
<text text-anchor="middle" x="412.794" y="-594.337" font-family="Times New Roman,serif" font-size="14.00">rectangle</text>
</g>
<!-- rect&#45;&gt;rectangle -->
<!-- square -->
<g id="node32" class="node"><title>square</title>
<polygon fill="none" stroke="black" points="439.294,-531.49 386.294,-531.49 386.294,-478.49 439.294,-478.49 439.294,-531.49"/>
<text text-anchor="middle" x="412.794" y="-501.29" font-family="Times New Roman,serif" font-size="14.00">square</text>
</g>
<!-- rectangle&#45;&gt;square -->
<!-- star -->
<g id="node33" class="node"><title>star</title>
<polygon fill="none" stroke="black" points="464.238,-394.796 424.938,-394.796 412.794,-432.176 400.649,-394.796 361.349,-394.796 393.144,-371.694 380.999,-334.315 412.794,-357.416 444.588,-334.315 432.444,-371.694 464.238,-394.796"/>
<text text-anchor="middle" x="412.794" y="-379.545" font-family="Times New Roman,serif" font-size="14.00">star</text>
</g>
<!-- square&#45;&gt;star -->
<!-- none -->
<g id="node34" class="node"><title>none</title>
<text text-anchor="middle" x="412.794" y="-261.3" font-family="Times New Roman,serif" font-size="14.00">none</text>
</g>
<!-- star&#45;&gt;none -->
<!-- underline -->
<g id="node35" class="node"><title>underline</title>
<polygon fill="none" stroke="none" points="446.294,-198 379.294,-198 379.294,-162 446.294,-162 446.294,-198"/>
<polyline fill="none" stroke="black" points="379.294,-162 446.294,-162 "/>
<text text-anchor="middle" x="412.794" y="-176.3" font-family="Times New Roman,serif" font-size="14.00">underline</text>
</g>
<!-- none&#45;&gt;underline -->
<!-- cylinder -->
<g id="node36" class="node"><title>cylinder</title>
<polygon fill="none" stroke="black" points="443.294,-113 382.294,-113 382.294,-77 443.294,-77 443.294,-113"/>
<text text-anchor="middle" x="412.794" y="-91.3" font-family="Times New Roman,serif" font-size="14.00">cylinder</text>
</g>
<!-- underline&#45;&gt;cylinder -->
<!-- note -->
<g id="node37" class="node"><title>note</title>
<polygon fill="none" stroke="black" points="558.794,-1131.78 510.794,-1131.78 510.794,-1095.78 564.794,-1095.78 564.794,-1125.78 558.794,-1131.78"/>
<polyline fill="none" stroke="black" points="558.794,-1131.78 558.794,-1125.78 "/>
<polyline fill="none" stroke="black" points="564.794,-1125.78 558.794,-1125.78 "/>
<text text-anchor="middle" x="537.794" y="-1110.08" font-family="Times New Roman,serif" font-size="14.00">note</text>
</g>
<!-- tab -->
<g id="node38" class="node"><title>tab</title>
<polygon fill="none" stroke="black" points="564.794,-1058.78 522.794,-1058.78 522.794,-1062.78 510.794,-1062.78 510.794,-1022.78 564.794,-1022.78 564.794,-1058.78"/>
<polyline fill="none" stroke="black" points="510.794,-1058.78 522.794,-1058.78 "/>
<text text-anchor="middle" x="537.794" y="-1037.08" font-family="Times New Roman,serif" font-size="14.00">tab</text>
</g>
<!-- note&#45;&gt;tab -->
<!-- folder -->
<g id="node39" class="node"><title>folder</title>
<polygon fill="none" stroke="black" points="564.794,-986.278 561.794,-990.278 540.794,-990.278 537.794,-986.278 510.794,-986.278 510.794,-950.278 564.794,-950.278 564.794,-986.278"/>
<text text-anchor="middle" x="537.794" y="-964.578" font-family="Times New Roman,serif" font-size="14.00">folder</text>
</g>
<!-- tab&#45;&gt;folder -->
<!-- box3d -->
<g id="node40" class="node"><title>box3d</title>
<polygon fill="none" stroke="black" points="564.794,-899.778 514.794,-899.778 510.794,-895.778 510.794,-863.778 560.794,-863.778 564.794,-867.778 564.794,-899.778"/>
<polyline fill="none" stroke="black" points="560.794,-895.778 510.794,-895.778 "/>
<polyline fill="none" stroke="black" points="560.794,-895.778 560.794,-863.778 "/>
<polyline fill="none" stroke="black" points="560.794,-895.778 564.794,-899.778 "/>
<text text-anchor="middle" x="537.794" y="-878.078" font-family="Times New Roman,serif" font-size="14.00">box3d</text>
</g>
<!-- folder&#45;&gt;box3d -->
<!-- component -->
<g id="node41" class="node"><title>component</title>
<polygon fill="none" stroke="black" points="577.794,-792.931 497.794,-792.931 497.794,-788.931 493.794,-788.931 493.794,-784.931 497.794,-784.931 497.794,-764.931 493.794,-764.931 493.794,-760.931 497.794,-760.931 497.794,-756.931 577.794,-756.931 577.794,-792.931"/>
<polyline fill="none" stroke="black" points="497.794,-788.931 501.794,-788.931 501.794,-784.931 497.794,-784.931 "/>
<polyline fill="none" stroke="black" points="497.794,-764.931 501.794,-764.931 501.794,-760.931 497.794,-760.931 "/>
<text text-anchor="middle" x="537.794" y="-771.231" font-family="Times New Roman,serif" font-size="14.00">component</text>
</g>
<!-- box3d&#45;&gt;component -->
<!-- promoter -->
<g id="node42" class="node"><title>promoter</title>
<polygon fill="none" stroke="black" points="546.294,-700.585 520.794,-700.585 520.794,-682.585 526.794,-682.585 526.794,-694.585 546.294,-694.585 546.294,-691.585 558.294,-697.585 546.294,-703.585 546.294,-700.585"/>
<polyline fill="none" stroke="black" points="503.794,-682.585 571.794,-682.585 "/>
<text text-anchor="middle" x="537.794" y="-678.885" font-family="Times New Roman,serif" font-size="14.00">promoter</text>
</g>
<!-- component&#45;&gt;promoter -->
<!-- cds -->
<g id="node43" class="node"><title>cds</title>
<polygon fill="none" stroke="black" points="552.794,-610.037 510.794,-610.037 510.794,-586.037 552.794,-586.037 564.794,-598.037 552.794,-610.037"/>
<text text-anchor="middle" x="537.794" y="-594.337" font-family="Times New Roman,serif" font-size="14.00">cds</text>
</g>
<!-- promoter&#45;&gt;cds -->
<!-- terminator -->
<g id="node44" class="node"><title>terminator</title>
<polygon fill="none" stroke="black" points="540.794,-504.99 540.794,-510.99 546.794,-510.99 546.794,-516.99 528.794,-516.99 528.794,-510.99 534.794,-510.99 534.794,-504.99 540.794,-504.99"/>
<polyline fill="none" stroke="black" points="501.294,-504.99 574.294,-504.99 "/>
<text text-anchor="middle" x="537.794" y="-501.29" font-family="Times New Roman,serif" font-size="14.00">terminator</text>
</g>
<!-- cds&#45;&gt;terminator -->
<!-- utr -->
<g id="node45" class="node"><title>utr</title>
<polygon fill="none" stroke="black" points="546.794,-383.245 546.794,-386.245 540.794,-392.245 534.794,-392.245 528.794,-386.245 528.794,-383.245 546.794,-383.245"/>
<polyline fill="none" stroke="black" points="510.794,-383.245 564.794,-383.245 "/>
<text text-anchor="middle" x="537.794" y="-379.545" font-family="Times New Roman,serif" font-size="14.00">utr</text>
</g>
<!-- terminator&#45;&gt;utr -->
<!-- primersite -->
<g id="node46" class="node"><title>primersite</title>
<polygon fill="none" stroke="black" points="549.794,-268 537.794,-280 537.794,-274 520.044,-274 520.044,-268 549.794,-268"/>
<polyline fill="none" stroke="black" points="502.294,-265 573.294,-265 "/>
<text text-anchor="middle" x="537.794" y="-261.3" font-family="Times New Roman,serif" font-size="14.00">primersite</text>
</g>
<!-- utr&#45;&gt;primersite -->
<!-- restrictionsite -->
<g id="node47" class="node"><title>restrictionsite</title>
<polygon fill="none" stroke="black" points="555.169,-183 526.419,-183 526.419,-189 520.419,-189 520.419,-177 549.169,-177 549.169,-171 555.169,-171 555.169,-183"/>
<polyline fill="none" stroke="black" points="492.294,-180 520.419,-180 "/>
<polyline fill="none" stroke="black" points="555.169,-180 583.294,-180 "/>
<text text-anchor="middle" x="537.794" y="-176.3" font-family="Times New Roman,serif" font-size="14.00">restrictionsite</text>
</g>
<!-- primersite&#45;&gt;restrictionsite -->
<!-- fivepoverhang -->
<g id="node48" class="node"><title>fivepoverhang</title>
<polygon fill="none" stroke="black" points="490.294,-96.5 514.294,-96.5 514.294,-102.5 490.294,-102.5 490.294,-96.5"/>
<polygon fill="none" stroke="black" points="502.294,-87.5 514.294,-87.5 514.294,-93.5 502.294,-93.5 502.294,-87.5"/>
<polyline fill="none" stroke="black" points="514.294,-95 585.294,-95 "/>
<text text-anchor="middle" x="537.794" y="-91.3" font-family="Times New Roman,serif" font-size="14.00">fivepoverhang</text>
</g>
<!-- restrictionsite&#45;&gt;fivepoverhang -->
<!-- threepoverhang -->
<g id="node49" class="node"><title>threepoverhang</title>
<polygon fill="none" stroke="black" points="588.794,-19.5 588.794,-25.5 564.794,-25.5 564.794,-19.5 588.794,-19.5"/>
<polygon fill="none" stroke="black" points="576.794,-10.5 576.794,-16.5 564.794,-16.5 564.794,-10.5 576.794,-10.5"/>
<polyline fill="none" stroke="black" points="486.794,-18 564.794,-18 "/>
<text text-anchor="middle" x="537.794" y="-14.3" font-family="Times New Roman,serif" font-size="14.00">threepoverhang</text>
</g>
<!-- fivepoverhang&#45;&gt;threepoverhang -->
<!-- noverhang -->
<g id="node50" class="node"><title>noverhang</title>
<polygon fill="none" stroke="black" points="625.294,-1115.28 637.294,-1115.28 637.294,-1121.28 625.294,-1121.28 625.294,-1115.28"/>
<polygon fill="none" stroke="black" points="625.294,-1106.28 637.294,-1106.28 637.294,-1112.28 625.294,-1112.28 625.294,-1106.28"/>
<polygon fill="none" stroke="black" points="640.294,-1106.28 652.294,-1106.28 652.294,-1112.28 640.294,-1112.28 640.294,-1106.28"/>
<polygon fill="none" stroke="black" points="640.294,-1115.28 652.294,-1115.28 652.294,-1121.28 640.294,-1121.28 640.294,-1115.28"/>
<polyline fill="none" stroke="black" points="652.294,-1113.78 675.794,-1113.78 "/>
<polyline fill="none" stroke="black" points="625.294,-1113.78 601.794,-1113.78 "/>
<text text-anchor="middle" x="638.794" y="-1110.08" font-family="Times New Roman,serif" font-size="14.00">noverhang</text>
</g>
<!-- assembly -->
<g id="node51" class="node"><title>assembly</title>
<polygon fill="none" stroke="black" points="626.794,-1042.28 650.794,-1042.28 650.794,-1048.28 626.794,-1048.28 626.794,-1042.28"/>
<polygon fill="none" stroke="black" points="626.794,-1033.28 650.794,-1033.28 650.794,-1039.28 626.794,-1039.28 626.794,-1033.28"/>
<polyline fill="none" stroke="black" points="650.794,-1040.78 672.794,-1040.78 "/>
<polyline fill="none" stroke="black" points="604.794,-1040.78 626.794,-1040.78 "/>
<text text-anchor="middle" x="638.794" y="-1037.08" font-family="Times New Roman,serif" font-size="14.00">assembly</text>
</g>
<!-- noverhang&#45;&gt;assembly -->
<!-- signature -->
<g id="node52" class="node"><title>signature</title>
<polygon fill="none" stroke="black" points="671.794,-980.278 605.794,-980.278 605.794,-956.278 671.794,-956.278 671.794,-980.278"/>
<polyline fill="none" stroke="black" points="608.794,-969.778 611.794,-966.778 "/>
<polyline fill="none" stroke="black" points="608.794,-966.778 611.794,-969.778 "/>
<polyline fill="none" stroke="black" points="608.794,-959.278 668.794,-959.278 "/>
<text text-anchor="middle" x="638.794" y="-964.578" font-family="Times New Roman,serif" font-size="14.00">signature</text>
</g>
<!-- assembly&#45;&gt;signature -->
<!-- insulator -->
<g id="node53" class="node"><title>insulator</title>
<polygon fill="none" stroke="black" points="644.794,-887.778 644.794,-875.778 632.794,-875.778 632.794,-887.778 644.794,-887.778"/>
<polyline fill="none" stroke="black" points="647.794,-890.778 647.794,-872.778 629.794,-872.778 629.794,-890.778 647.794,-890.778 "/>
<polyline fill="none" stroke="black" points="647.794,-881.778 670.794,-881.778 "/>
<polyline fill="none" stroke="black" points="606.794,-881.778 629.794,-881.778 "/>
<text text-anchor="middle" x="638.794" y="-878.078" font-family="Times New Roman,serif" font-size="14.00">insulator</text>
</g>
<!-- signature&#45;&gt;insulator -->
<!-- ribosite -->
<g id="node54" class="node"><title>ribosite</title>
<polygon fill="none" stroke="black" points="641.794,-780.931 641.794,-782.431 640.294,-783.931 641.794,-785.431 641.794,-786.931 640.294,-786.931 638.794,-785.431 637.294,-786.931 635.794,-786.931 635.794,-785.431 637.294,-783.931 635.794,-782.431 635.794,-780.931 637.294,-780.931 638.794,-782.431 640.294,-780.931 641.794,-780.931"/>
<polyline fill="none" stroke="black" points="638.794,-774.931 638.794,-776.431 "/>
<polyline fill="none" stroke="black" points="638.794,-777.931 638.794,-779.431 "/>
<polyline fill="none" stroke="black" points="609.794,-774.931 667.794,-774.931 "/>
<text text-anchor="middle" x="638.794" y="-771.231" font-family="Times New Roman,serif" font-size="14.00">ribosite</text>
</g>
<!-- insulator&#45;&gt;ribosite -->
<!-- rnastab -->
<g id="node55" class="node"><title>rnastab</title>
<polygon fill="none" stroke="black" points="640.294,-688.585 641.794,-690.085 641.794,-693.085 640.294,-694.585 637.294,-694.585 635.794,-693.085 635.794,-690.085 637.294,-688.585 640.294,-688.585"/>
<polyline fill="none" stroke="black" points="638.794,-682.585 638.794,-684.085 "/>
<polyline fill="none" stroke="black" points="638.794,-685.585 638.794,-687.085 "/>
<polyline fill="none" stroke="black" points="610.294,-682.585 667.294,-682.585 "/>
<text text-anchor="middle" x="638.794" y="-678.885" font-family="Times New Roman,serif" font-size="14.00">rnastab</text>
</g>
<!-- ribosite&#45;&gt;rnastab -->
<!-- proteasesite -->
<g id="node56" class="node"><title>proteasesite</title>
<polygon fill="none" stroke="black" points="641.794,-604.037 641.794,-605.537 640.294,-607.037 641.794,-608.537 641.794,-610.037 640.294,-610.037 638.794,-608.537 637.294,-610.037 635.794,-610.037 635.794,-608.537 637.294,-607.037 635.794,-605.537 635.794,-604.037 637.294,-604.037 638.794,-605.537 640.294,-604.037 641.794,-604.037"/>
<polyline fill="none" stroke="black" points="638.794,-605.537 638.794,-598.037 "/>
<polyline fill="none" stroke="black" points="597.294,-598.037 680.294,-598.037 "/>
<text text-anchor="middle" x="638.794" y="-594.337" font-family="Times New Roman,serif" font-size="14.00">proteasesite</text>
</g>
<!-- rnastab&#45;&gt;proteasesite -->
<!-- proteinstab -->
<g id="node57" class="node"><title>proteinstab</title>
<polygon fill="none" stroke="black" points="640.294,-510.99 641.794,-512.49 641.794,-515.49 640.294,-516.99 637.294,-516.99 635.794,-515.49 635.794,-512.49 637.294,-510.99 640.294,-510.99"/>
<polyline fill="none" stroke="black" points="638.794,-510.99 638.794,-504.99 "/>
<polyline fill="none" stroke="black" points="599.294,-504.99 678.294,-504.99 "/>
<text text-anchor="middle" x="638.794" y="-501.29" font-family="Times New Roman,serif" font-size="14.00">proteinstab</text>
</g>
<!-- proteasesite&#45;&gt;proteinstab -->
<!-- rpromoter -->
<g id="node58" class="node"><title>rpromoter</title>
<polygon fill="none" stroke="black" points="657.294,-395.245 602.294,-395.245 602.294,-365.245 620.294,-365.245 620.294,-371.245 657.294,-371.245 657.294,-365.245 675.294,-383.245 657.294,-401.245 657.294,-395.245"/>
<text text-anchor="middle" x="638.794" y="-379.545" font-family="Times New Roman,serif" font-size="14.00">rpromoter</text>
</g>
<!-- proteinstab&#45;&gt;rpromoter -->
<!-- rarrow -->
<g id="node59" class="node"><title>rarrow</title>
<polygon fill="none" stroke="black" points="647.794,-277 611.794,-277 611.794,-253 647.794,-253 647.794,-247 665.794,-265 647.794,-283 647.794,-277"/>
<text text-anchor="middle" x="638.794" y="-261.3" font-family="Times New Roman,serif" font-size="14.00">rarrow</text>
</g>
<!-- rpromoter&#45;&gt;rarrow -->
<!-- larrow -->
<g id="node60" class="node"><title>larrow</title>
<polygon fill="none" stroke="black" points="665.794,-192 629.794,-192 629.794,-198 611.794,-180 629.794,-162 629.794,-168 665.794,-168 665.794,-192"/>
<text text-anchor="middle" x="638.794" y="-176.3" font-family="Times New Roman,serif" font-size="14.00">larrow</text>
</g>
<!-- rarrow&#45;&gt;larrow -->
<!-- lpromoter -->
<g id="node61" class="node"><title>lpromoter</title>
<polygon fill="none" stroke="black" points="674.294,-107 621.294,-107 621.294,-113 603.294,-95 621.294,-77 621.294,-83 656.294,-83 656.294,-77 674.294,-77 674.294,-107"/>
<text text-anchor="middle" x="638.794" y="-91.3" font-family="Times New Roman,serif" font-size="14.00">lpromoter</text>
</g>
<!-- larrow&#45;&gt;lpromoter -->
</g>
</svg>
