<?xml version="1.0" encoding="UTF-8" standalone="no"?>
<!DOCTYPE svg PUBLIC "-//W3C//DTD SVG 1.1//EN"
 "http://www.w3.org/Graphics/SVG/1.1/DTD/svg11.dtd">
<!-- Generated by graphviz version 2.38.0 (20140413.2041)
 -->
<!-- Title: graphRank Pages: 1 -->
<svg width="206pt" height="264pt"
 viewBox="0.00 0.00 206.00 264.00" xmlns="http://www.w3.org/2000/svg" xmlns:xlink="http://www.w3.org/1999/xlink">
<g id="graph0" class="graph" transform="scale(1 1) rotate(0) translate(4 260)">
<title>graphRank</title>
<polygon fill="white" stroke="none" points="-4,4 -4,-260 202,-260 202,4 -4,4"/>
<!-- rA -->
<g id="node1" class="node"><title>rA</title>
<polygon fill="none" stroke="black" points="0,-146.5 0,-182.5 54,-182.5 54,-146.5 0,-146.5"/>
<text text-anchor="middle" x="27" y="-160.8" font-family="Times New Roman,serif" font-size="14.00">rA</text>
</g>
<!-- sA -->
<g id="node2" class="node"><title>sA</title>
<polygon fill="none" stroke="black" points="72,-146.5 72,-182.5 126,-182.5 126,-146.5 72,-146.5"/>
<text text-anchor="middle" x="99" y="-160.8" font-family="Times New Roman,serif" font-size="14.00">sA</text>
</g>
<!-- rA&#45;&gt;sA -->
<g id="edge1" class="edge"><title>rA&#45;&gt;sA</title>
<path fill="none" stroke="black" d="M54.2813,-164.5C56.7377,-164.5 59.1942,-164.5 61.6507,-164.5"/>
<polygon fill="black" stroke="black" points="61.7495,-168 71.7495,-164.5 61.7495,-161 61.7495,-168"/>
</g>
<!-- vB -->
<g id="node5" class="node"><title>vB</title>
<polygon fill="none" stroke="black" points="72,-73.5 72,-109.5 126,-109.5 126,-73.5 72,-73.5"/>
<text text-anchor="middle" x="99" y="-87.8" font-family="Times New Roman,serif" font-size="14.00">vB</text>
</g>
<!-- sA&#45;&gt;vB -->
<g id="edge2" class="edge"><title>sA&#45;&gt;vB</title>
<path fill="none" stroke="black" d="M99,-146.313C99,-138.289 99,-128.547 99,-119.569"/>
<polygon fill="black" stroke="black" points="102.5,-119.529 99,-109.529 95.5001,-119.529 102.5,-119.529"/>
</g>
<!-- tA -->
<g id="node3" class="node"><title>tA</title>
<polygon fill="none" stroke="black" points="144,-146.5 144,-182.5 198,-182.5 198,-146.5 144,-146.5"/>
<text text-anchor="middle" x="171" y="-160.8" font-family="Times New Roman,serif" font-size="14.00">tA</text>
</g>
<!-- uB -->
<g id="node4" class="node"><title>uB</title>
<polygon fill="none" stroke="black" points="0,-73.5 0,-109.5 54,-109.5 54,-73.5 0,-73.5"/>
<text text-anchor="middle" x="27" y="-87.8" font-family="Times New Roman,serif" font-size="14.00">uB</text>
</g>
<!-- uB&#45;&gt;vB -->
<g id="edge4" class="edge"><title>uB&#45;&gt;vB</title>
<path fill="none" stroke="black" d="M54.2813,-91.5C56.7377,-91.5 59.1942,-91.5 61.6507,-91.5"/>
<polygon fill="black" stroke="black" points="61.7495,-95.0001 71.7495,-91.5 61.7495,-88.0001 61.7495,-95.0001"/>
</g>
<!-- wB -->
<g id="node6" class="node"><title>wB</title>
<polygon fill="none" stroke="black" points="144,-73.5 144,-109.5 198,-109.5 198,-73.5 144,-73.5"/>
<text text-anchor="middle" x="171" y="-87.8" font-family="Times New Roman,serif" font-size="14.00">wB</text>
</g>
<!-- wB&#45;&gt;tA -->
<g id="edge6" class="edge"><title>wB&#45;&gt;tA</title>
<path fill="none" stroke="black" d="M171,-109.529C171,-117.529 171,-127.265 171,-136.253"/>
<polygon fill="black" stroke="black" points="167.5,-136.313 171,-146.313 174.5,-136.313 167.5,-136.313"/>
</g>
<!-- u -->
<g id="node8" class="node"><title>u</title>
<polygon fill="none" stroke="black" points="144,-0.5 144,-36.5 198,-36.5 198,-0.5 144,-0.5"/>
<text text-anchor="middle" x="171" y="-14.8" font-family="Times New Roman,serif" font-size="14.00">u</text>
</g>
<!-- wB&#45;&gt;u -->
<g id="edge5" class="edge"><title>wB&#45;&gt;u</title>
<path fill="none" stroke="black" d="M171,-73.3129C171,-65.2895 171,-55.5475 171,-46.5691"/>
<polygon fill="black" stroke="black" points="174.5,-46.5288 171,-36.5288 167.5,-46.5289 174.5,-46.5288"/>
</g>
<!-- t -->
<g id="node7" class="node"><title>t</title>
<polygon fill="none" stroke="black" points="0,-219.5 0,-255.5 54,-255.5 54,-219.5 0,-219.5"/>
<text text-anchor="middle" x="27" y="-233.8" font-family="Times New Roman,serif" font-size="14.00">t</text>
</g>
<!-- t&#45;&gt;rA -->
<g id="edge3" class="edge"><title>t&#45;&gt;rA</title>
<path fill="none" stroke="black" d="M27,-219.313C27,-211.289 27,-201.547 27,-192.569"/>
<polygon fill="black" stroke="black" points="30.5001,-192.529 27,-182.529 23.5001,-192.529 30.5001,-192.529"/>
</g>
</g>
</svg>
