<?xml version="1.0" encoding="UTF-8" standalone="no"?>
<!DOCTYPE svg PUBLIC "-//W3C//DTD SVG 1.1//EN"
 "http://www.w3.org/Graphics/SVG/1.1/DTD/svg11.dtd">
<!-- Generated by graphviz version 2.38.0 (20140413.2041)
 -->
<!-- Title: graphNodePorts Pages: 1 -->
<svg width="146pt" height="116pt"
 viewBox="0.00 0.00 145.65 116.00" xmlns="http://www.w3.org/2000/svg" xmlns:xlink="http://www.w3.org/1999/xlink">
<g id="graph0" class="graph" transform="scale(1 1) rotate(0) translate(4 112)">
<title>graphNodePorts</title>
<polygon fill="white" stroke="none" points="-4,4 -4,-112 141.65,-112 141.65,4 -4,4"/>
<!-- a -->
<g id="node1" class="node"><title>a</title>
<ellipse fill="none" stroke="black" cx="38.6497" cy="-90" rx="27" ry="18"/>
<text text-anchor="middle" x="38.6497" y="-86.3" font-family="Times New Roman,serif" font-size="14.00">a</text>
</g>
<!-- b -->
<g id="node2" class="node"><title>b</title>
<ellipse fill="none" stroke="black" cx="39.6497" cy="-18" rx="27" ry="18"/>
<text text-anchor="middle" x="39.6497" y="-14.3" font-family="Times New Roman,serif" font-size="14.00">b</text>
</g>
<!-- a&#45;&gt;b -->
<g id="edge1" class="edge"><title>a:w&#45;&gt;b</title>
<path fill="none" stroke="black" d="M10.6497,-90C-10.415,-90 5.63056,-62.8851 20.9641,-42.1682"/>
<polygon fill="black" stroke="black" points="23.8715,-44.128 27.1626,-34.0573 18.3096,-39.8776 23.8715,-44.128"/>
</g>
<!-- c -->
<g id="node3" class="node"><title>c</title>
<ellipse fill="none" stroke="black" cx="110.65" cy="-90" rx="27" ry="18"/>
<text text-anchor="middle" x="110.65" y="-86.3" font-family="Times New Roman,serif" font-size="14.00">c</text>
</g>
<!-- c&#45;&gt;b -->
<g id="edge2" class="edge"><title>c:sw&#45;&gt;b:e</title>
<path fill="none" stroke="black" d="M95.6497,-74C79.0477,-57.398 90.3381,-28.9447 77.5569,-20.4584"/>
<polygon fill="black" stroke="black" points="78.1983,-17.0114 67.6497,-18 76.5124,-23.8054 78.1983,-17.0114"/>
</g>
</g>
</svg>
