<?xml version="1.0" encoding="UTF-8" standalone="no"?>
<!DOCTYPE svg PUBLIC "-//W3C//DTD SVG 1.1//EN"
 "http://www.w3.org/Graphics/SVG/1.1/DTD/svg11.dtd">
<!-- Generated by graphviz version 2.38.0 (20140413.2041)
 -->
<!-- Title: graphTextAlign Pages: 1 -->
<svg width="139pt" height="242pt"
 viewBox="0.00 0.00 139.00 242.00" xmlns="http://www.w3.org/2000/svg" xmlns:xlink="http://www.w3.org/1999/xlink">
<g id="graph0" class="graph" transform="scale(1 1) rotate(0) translate(4 238)">
<title>graphTextAlign</title>
<polygon fill="white" stroke="none" points="-4,4 -4,-238 135,-238 135,4 -4,4"/>
<!-- a -->
<g id="node1" class="node"><title>a</title>
<polygon fill="none" stroke="black" points="0,-180.5 0,-233.5 131,-233.5 131,-180.5 0,-180.5"/>
<text text-anchor="start" x="8" y="-218.3" font-family="Arial" font-size="14.00">one</text>
<text text-anchor="start" x="8" y="-203.3" font-family="Arial" font-size="14.00">two three</text>
<text text-anchor="start" x="8" y="-188.3" font-family="Arial" font-size="14.00">four five six seven</text>
</g>
<!-- b -->
<g id="node2" class="node"><title>b</title>
<polygon fill="none" stroke="black" points="0,-90.5 0,-143.5 131,-143.5 131,-90.5 0,-90.5"/>
<text text-anchor="middle" x="65.5" y="-128.3" font-family="Arial" font-size="14.00">one</text>
<text text-anchor="middle" x="65.5" y="-113.3" font-family="Arial" font-size="14.00">two three</text>
<text text-anchor="middle" x="65.5" y="-98.3" font-family="Arial" font-size="14.00">four five six seven</text>
</g>
<!-- a&#45;&gt;b -->
<g id="edge1" class="edge"><title>a&#45;&gt;b</title>
<path fill="none" stroke="black" d="M65.5,-180.073C65.5,-171.838 65.5,-162.58 65.5,-153.777"/>
<polygon fill="black" stroke="black" points="69.0001,-153.742 65.5,-143.742 62.0001,-153.742 69.0001,-153.742"/>
</g>
<!-- c -->
<g id="node3" class="node"><title>c</title>
<polygon fill="none" stroke="black" points="0,-0.5 0,-53.5 131,-53.5 131,-0.5 0,-0.5"/>
<text text-anchor="end" x="123" y="-38.3" font-family="Arial" font-size="14.00">one</text>
<text text-anchor="end" x="123" y="-23.3" font-family="Arial" font-size="14.00">two three</text>
<text text-anchor="end" x="123" y="-8.3" font-family="Arial" font-size="14.00">four five six seven</text>
</g>
<!-- b&#45;&gt;c -->
<g id="edge2" class="edge"><title>b&#45;&gt;c</title>
<path fill="none" stroke="black" d="M65.5,-90.0731C65.5,-81.8377 65.5,-72.5799 65.5,-63.7774"/>
<polygon fill="black" stroke="black" points="69.0001,-63.7416 65.5,-53.7416 62.0001,-63.7417 69.0001,-63.7416"/>
</g>
</g>
</svg>
