<?xml version="1.0" encoding="UTF-8" standalone="no"?>
<!DOCTYPE svg PUBLIC "-//W3C//DTD SVG 1.1//EN"
 "http://www.w3.org/Graphics/SVG/1.1/DTD/svg11.dtd">
<!-- Generated by graphviz version 2.38.0 (20140413.2041)
 -->
<!-- Title: graphAttrs Pages: 1 -->
<svg width="258pt" height="288pt"
 viewBox="0.00 0.00 258.04 288.00" xmlns="http://www.w3.org/2000/svg" xmlns:xlink="http://www.w3.org/1999/xlink">
<g id="graph0" class="graph" transform="scale(0.912143 0.912143) rotate(0) translate(4 311.74)">
<title>graphAttrs</title>
<polygon fill="white" stroke="none" points="-4,4 -4,-311.74 278.894,-311.74 278.894,4 -4,4"/>
<!-- main -->
<g id="node1" class="node"><title>main</title>
<polygon fill="none" stroke="black" points="138.547,-307.74 84.5473,-307.74 84.5473,-271.74 138.547,-271.74 138.547,-307.74"/>
<text text-anchor="middle" x="111.547" y="-286.04" font-family="Times New Roman,serif" font-size="14.00">main</text>
</g>
<!-- parse -->
<g id="node2" class="node"><title>parse</title>
<ellipse fill="none" stroke="black" cx="111.547" cy="-216.74" rx="30.5947" ry="18"/>
<text text-anchor="middle" x="111.547" y="-213.04" font-family="Times New Roman,serif" font-size="14.00">parse</text>
</g>
<!-- main&#45;&gt;parse -->
<g id="edge1" class="edge"><title>main&#45;&gt;parse</title>
<path fill="none" stroke="black" d="M111.547,-271.553C111.547,-263.53 111.547,-253.788 111.547,-244.809"/>
<polygon fill="black" stroke="black" points="115.047,-244.769 111.547,-234.769 108.047,-244.769 115.047,-244.769"/>
</g>
<!-- init -->
<g id="node4" class="node"><title>init</title>
<ellipse fill="none" stroke="black" cx="173.547" cy="-162.74" rx="27" ry="18"/>
<text text-anchor="middle" x="173.547" y="-159.04" font-family="Times New Roman,serif" font-size="14.00">init</text>
</g>
<!-- main&#45;&gt;init -->
<g id="edge3" class="edge"><title>main&#45;&gt;init</title>
<path fill="none" stroke="black" stroke-dasharray="1,5" d="M126.485,-271.731C134.797,-261.561 144.797,-248.061 151.547,-234.74 158.612,-220.797 163.917,-204.154 167.545,-190.487"/>
<polygon fill="black" stroke="black" points="170.96,-191.261 169.995,-180.71 164.169,-189.56 170.96,-191.261"/>
</g>
<!-- cleanup -->
<g id="node5" class="node"><title>cleanup</title>
<ellipse fill="none" stroke="black" cx="236.547" cy="-216.74" rx="38.1938" ry="18"/>
<text text-anchor="middle" x="236.547" y="-213.04" font-family="Times New Roman,serif" font-size="14.00">cleanup</text>
</g>
<!-- main&#45;&gt;cleanup -->
<g id="edge4" class="edge"><title>main&#45;&gt;cleanup</title>
<path fill="none" stroke="black" d="M138.77,-276.933C152.73,-270.57 169.842,-262.283 184.547,-253.74 192.463,-249.141 200.738,-243.719 208.299,-238.499"/>
<polygon fill="black" stroke="black" points="210.623,-241.143 216.783,-232.523 206.592,-235.42 210.623,-241.143"/>
</g>
<!-- printf -->
<g id="node7" class="node"><title>printf</title>
<ellipse fill="none" stroke="black" cx="30.5473" cy="-26.8701" rx="30.5947" ry="18"/>
<text text-anchor="middle" x="30.5473" y="-23.1701" font-family="Times New Roman,serif" font-size="14.00">printf</text>
</g>
<!-- main&#45;&gt;printf -->
<g id="edge8" class="edge"><title>main&#45;&gt;printf</title>
<path fill="none" stroke="red" stroke-width="2" d="M96.7158,-271.676C88.4387,-261.489 78.4387,-247.989 71.5473,-234.74 40.8375,-175.702 33.0675,-96.2161 31.1436,-55.0786"/>
<polygon fill="red" stroke="red" stroke-width="2" points="34.6382,-54.8686 30.7557,-45.0109 27.6434,-55.1382 34.6382,-54.8686"/>
<text text-anchor="middle" x="77.5473" y="-159.04" font-family="Times New Roman,serif" font-size="14.00">100 times</text>
</g>
<!-- execute -->
<g id="node3" class="node"><title>execute</title>
<ellipse fill="none" stroke="black" cx="111.547" cy="-108.74" rx="38.1938" ry="18"/>
<text text-anchor="middle" x="111.547" y="-105.04" font-family="Times New Roman,serif" font-size="14.00">execute</text>
</g>
<!-- parse&#45;&gt;execute -->
<g id="edge2" class="edge"><title>parse&#45;&gt;execute</title>
<path fill="none" stroke="black" d="M111.547,-198.709C111.547,-182.118 111.547,-156.623 111.547,-137.171"/>
<polygon fill="black" stroke="black" points="115.047,-137.081 111.547,-127.081 108.047,-137.081 115.047,-137.081"/>
</g>
<!-- make_string -->
<g id="node6" class="node"><title>make_string</title>
<ellipse fill="none" stroke="black" cx="201.547" cy="-26.8701" rx="39.6962" ry="26.7407"/>
<text text-anchor="middle" x="201.547" y="-30.6701" font-family="Times New Roman,serif" font-size="14.00">make a</text>
<text text-anchor="middle" x="201.547" y="-15.6701" font-family="Times New Roman,serif" font-size="14.00">string</text>
</g>
<!-- execute&#45;&gt;make_string -->
<g id="edge5" class="edge"><title>execute&#45;&gt;make_string</title>
<path fill="none" stroke="black" d="M128.9,-92.3404C140.709,-81.8605 156.666,-67.7001 170.616,-55.3197"/>
<polygon fill="black" stroke="black" points="172.965,-57.9149 178.121,-48.6595 168.318,-52.6793 172.965,-57.9149"/>
</g>
<!-- execute&#45;&gt;printf -->
<g id="edge6" class="edge"><title>execute&#45;&gt;printf</title>
<path fill="none" stroke="black" d="M95.5443,-91.9604C83.4424,-80.0273 66.6661,-63.485 53.1889,-50.1958"/>
<polygon fill="black" stroke="black" points="55.2732,-47.3357 45.6952,-42.8066 50.3583,-52.3201 55.2732,-47.3357"/>
</g>
<!-- compare -->
<g id="node8" class="node"><title>compare</title>
<polygon fill="#c1b2ff" stroke="#c1b2ff" points="144.047,-44.8701 79.0473,-44.8701 79.0473,-8.87006 144.047,-8.87006 144.047,-44.8701"/>
<text text-anchor="middle" x="111.547" y="-23.1701" font-family="Times New Roman,serif" font-size="14.00">compare</text>
</g>
<!-- execute&#45;&gt;compare -->
<g id="edge9" class="edge"><title>execute&#45;&gt;compare</title>
<path fill="none" stroke="red" d="M111.547,-90.4095C111.547,-80.0823 111.547,-66.7479 111.547,-55.0464"/>
<polygon fill="red" stroke="red" points="115.047,-54.8924 111.547,-44.8925 108.047,-54.8925 115.047,-54.8924"/>
</g>
<!-- init&#45;&gt;make_string -->
<g id="edge7" class="edge"><title>init&#45;&gt;make_string</title>
<path fill="none" stroke="black" d="M177.094,-144.785C181.329,-124.537 188.529,-90.1114 194.023,-63.8444"/>
<polygon fill="black" stroke="black" points="197.488,-64.3724 196.11,-53.8676 190.636,-62.9392 197.488,-64.3724"/>
</g>
</g>
</svg>
