<?xml version="1.0" encoding="UTF-8" standalone="no"?>
<!DOCTYPE svg PUBLIC "-//W3C//DTD SVG 1.1//EN"
 "http://www.w3.org/Graphics/SVG/1.1/DTD/svg11.dtd">
<!-- Generated by graphviz version 2.38.0 (20140413.2041)
 -->
<!-- Title: graphPorts Pages: 1 -->
<svg width="233pt" height="138pt"
 viewBox="0.00 0.00 233.00 138.00" xmlns="http://www.w3.org/2000/svg" xmlns:xlink="http://www.w3.org/1999/xlink">
<g id="graph0" class="graph" transform="scale(1 1) rotate(0) translate(4 134)">
<title>graphPorts</title>
<polygon fill="white" stroke="none" points="-4,4 -4,-134 229,-134 229,4 -4,4"/>
<!-- parent -->
<g id="node1" class="node"><title>parent</title>
<polygon fill="none" stroke="black" points="11.5,-102 11.5,-123 214.5,-123 214.5,-102 11.5,-102"/>
<text text-anchor="start" x="33.5" y="-108.8" font-family="Times New Roman,serif" font-size="14.00">The foo, the bar and the baz</text>
<polygon fill="none" stroke="black" points="11.5,-79 11.5,-100 70.5,-100 70.5,-79 11.5,-79"/>
<text text-anchor="start" x="14.5" y="-85.8" font-family="Times New Roman,serif" font-size="14.00">First port</text>
<polygon fill="none" stroke="black" points="72.5,-79 72.5,-100 148.5,-100 148.5,-79 72.5,-79"/>
<text text-anchor="start" x="75.5" y="-85.8" font-family="Times New Roman,serif" font-size="14.00">Second port</text>
<polygon fill="none" stroke="black" points="150.5,-79 150.5,-100 214.5,-100 214.5,-79 150.5,-79"/>
<text text-anchor="start" x="153.5" y="-85.8" font-family="Times New Roman,serif" font-size="14.00">Third port</text>
<polygon fill="none" stroke="black" points="8,-76 8,-126 217,-126 217,-76 8,-76"/>
</g>
<!-- child_one -->
<g id="node2" class="node"><title>child_one</title>
<text text-anchor="start" x="35.5" y="-13.8" font-family="Times New Roman,serif" font-size="14.00">1</text>
<polygon fill="none" stroke="black" points="30,-5.5 30,-30.5 47,-30.5 47,-5.5 30,-5.5"/>
</g>
<!-- parent&#45;&gt;child_one -->
<g id="edge1" class="edge"><title>parent:port_one&#45;&gt;child_one</title>
<path fill="none" stroke="black" d="M40.5,-78C40.5,-67.6133 40.1866,-56.204 39.8079,-46.2095"/>
<polygon fill="black" stroke="black" points="43.2973,-45.8803 39.3831,-36.0351 36.3034,-46.1724 43.2973,-45.8803"/>
</g>
<!-- child_two -->
<g id="node3" class="node"><title>child_two</title>
<text text-anchor="start" x="107.5" y="-13.8" font-family="Times New Roman,serif" font-size="14.00">2</text>
<polygon fill="none" stroke="black" points="102,-5.5 102,-30.5 119,-30.5 119,-5.5 102,-5.5"/>
</g>
<!-- parent&#45;&gt;child_two -->
<g id="edge2" class="edge"><title>parent:port_two&#45;&gt;child_two</title>
<path fill="none" stroke="black" d="M110.5,-78C110.5,-67.6193 110.5,-56.2112 110.5,-46.2161"/>
<polygon fill="black" stroke="black" points="114,-46.0402 110.5,-36.0402 107,-46.0403 114,-46.0402"/>
</g>
<!-- child_three -->
<g id="node4" class="node"><title>child_three</title>
<text text-anchor="start" x="179.5" y="-13.8" font-family="Times New Roman,serif" font-size="14.00">3</text>
<polygon fill="none" stroke="black" points="174,-5.5 174,-30.5 191,-30.5 191,-5.5 174,-5.5"/>
</g>
<!-- parent&#45;&gt;child_three -->
<g id="edge3" class="edge"><title>parent:port_three&#45;&gt;child_three</title>
<path fill="none" stroke="black" d="M182.5,-78C182.5,-67.6193 182.5,-56.2112 182.5,-46.2161"/>
<polygon fill="black" stroke="black" points="186,-46.0402 182.5,-36.0402 179,-46.0403 186,-46.0402"/>
</g>
</g>
</svg>
