<?xml version="1.0" encoding="UTF-8" standalone="no"?>
<!DOCTYPE svg PUBLIC "-//W3C//DTD SVG 1.1//EN"
 "http://www.w3.org/Graphics/SVG/1.1/DTD/svg11.dtd">
<!-- Generated by graphviz version 2.38.0 (20140413.2041)
 -->
<!-- Title: graphArrows Pages: 1 -->
<svg width="232pt" height="117pt"
 viewBox="0.00 0.00 232.30 117.00" xmlns="http://www.w3.org/2000/svg" xmlns:xlink="http://www.w3.org/1999/xlink">
<g id="graph0" class="graph" transform="scale(1 1) rotate(0) translate(4 113)">
<title>graphArrows</title>
<polygon fill="white" stroke="none" points="-4,4 -4,-113 228.296,-113 228.296,4 -4,4"/>
<!-- mynode -->
<g id="node1" class="node"><title>mynode</title>
<ellipse fill="none" stroke="red" cx="40.2964" cy="-91" rx="40.0939" ry="18"/>
<polyline fill="none" stroke="red" points="66.9485,-104.5 13.6444,-104.5 "/>
<polyline fill="none" stroke="red" points="66.9485,-77.5 13.6444,-77.5 "/>
<text text-anchor="middle" x="40.2964" y="-87.3" font-family="Times New Roman,serif" font-size="14.00">mynode</text>
</g>
<!-- b -->
<g id="node2" class="node"><title>b</title>
<ellipse fill="lightgrey" stroke="black" stroke-width="2" cx="53.2964" cy="-18.5" rx="27" ry="18"/>
<text text-anchor="middle" x="53.2964" y="-14.8" font-family="Times New Roman,serif" font-size="14.00">b</text>
</g>
<!-- c -->
<g id="node3" class="node"><title>c</title>
<polygon fill="#ff7f00" stroke="#24a222" stroke-width="2" points="152.296,-36.5 98.2964,-36.5 98.2964,-0.5 152.296,-0.5 152.296,-36.5"/>
<text text-anchor="middle" x="125.296" y="-14.8" font-family="Times New Roman,serif" font-size="14.00" fill="white">c</text>
</g>
<!-- d -->
<g id="node4" class="node"><title>d</title>
<path fill="#666666" stroke="red" d="M182.296,-0.5C182.296,-0.5 212.296,-0.5 212.296,-0.5 218.296,-0.5 224.296,-6.5 224.296,-12.5 224.296,-12.5 224.296,-24.5 224.296,-24.5 224.296,-30.5 218.296,-36.5 212.296,-36.5 212.296,-36.5 182.296,-36.5 182.296,-36.5 176.296,-36.5 170.296,-30.5 170.296,-24.5 170.296,-24.5 170.296,-12.5 170.296,-12.5 170.296,-6.5 176.296,-0.5 182.296,-0.5"/>
<text text-anchor="middle" x="197.296" y="-14.8" font-family="Times New Roman,serif" font-size="14.00" fill="white">d</text>
</g>
<!-- a -->
<g id="node5" class="node"><title>a</title>
<ellipse fill="none" stroke="black" cx="125.296" cy="-91" rx="27" ry="18"/>
<text text-anchor="middle" x="125.296" y="-87.3" font-family="Times New Roman,serif" font-size="14.00">a</text>
</g>
<!-- a&#45;&gt;b -->
<g id="edge1" class="edge"><title>a&#45;&gt;b</title>
<path fill="none" stroke="black" d="M110.726,-75.7333C100.089,-65.3174 85.5264,-51.0586 73.7277,-39.5056"/>
<ellipse fill="black" stroke="black" cx="70.7031" cy="-36.544" rx="4.00002" ry="4.00002"/>
</g>
<!-- a&#45;&gt;c -->
<g id="edge2" class="edge"><title>a&#45;&gt;c</title>
<path fill="none" stroke="black" d="M125.296,-72.9339C125.296,-68.0705 125.296,-62.5711 125.296,-56.9966"/>
<polygon fill="black" stroke="black" points="125.296,-36.8987 134.297,-56.8986 125.296,-46.8987 125.297,-56.8987 125.297,-56.8987 125.297,-56.8987 125.296,-46.8987 116.297,-56.8987 125.296,-36.8987 125.296,-36.8987"/>
</g>
<!-- a&#45;&gt;d -->
<g id="edge3" class="edge"><title>a&#45;&gt;d</title>
<path fill="none" stroke="black" d="M147.071,-68.6795C157.512,-58.4552 169.857,-46.3678 179.695,-36.735"/>
<polygon fill="none" stroke="black" points="144.563,-66.2362 139.867,-75.7333 149.461,-71.2378 144.563,-66.2362"/>
</g>
</g>
</svg>
