<?xml version="1.0" encoding="UTF-8" standalone="no"?>
<!DOCTYPE svg PUBLIC "-//W3C//DTD SVG 1.1//EN"
 "http://www.w3.org/Graphics/SVG/1.1/DTD/svg11.dtd">
<!-- Generated by graphviz version 2.38.0 (20140413.2041)
 -->
<!-- Title: graphStyles Pages: 1 -->
<svg width="607pt" height="131pt"
 viewBox="0.00 0.00 607.44 131.00" xmlns="http://www.w3.org/2000/svg" xmlns:xlink="http://www.w3.org/1999/xlink">
<g id="graph0" class="graph" transform="scale(1 1) rotate(0) translate(4 127)">
<title>graphStyles</title>
<polygon fill="white" stroke="none" points="-4,4 -4,-127 603.443,-127 603.443,4 -4,4"/>
<!-- solid -->
<g id="node1" class="node"><title>solid</title>
<ellipse fill="none" stroke="black" cx="44.846" cy="-105" rx="28.6953" ry="18"/>
<text text-anchor="middle" x="44.846" y="-101.3" font-family="Times New Roman,serif" font-size="14.00">solid</text>
</g>
<!-- dashed -->
<g id="node2" class="node"><title>dashed</title>
<ellipse fill="none" stroke="black" stroke-dasharray="5,2" cx="154.846" cy="-105" rx="36.2938" ry="18"/>
<text text-anchor="middle" x="154.846" y="-101.3" font-family="Times New Roman,serif" font-size="14.00">dashed</text>
</g>
<!-- solid&#45;&gt;dashed -->
<g id="edge1" class="edge"><title>solid&#45;&gt;dashed</title>
<path fill="none" stroke="black" d="M73.4601,-105C83.9963,-105 96.2257,-105 107.952,-105"/>
<polygon fill="black" stroke="black" points="108.073,-108.5 118.073,-105 108.073,-101.5 108.073,-108.5"/>
<text text-anchor="middle" x="95.9464" y="-111.8" font-family="Times New Roman,serif" font-size="14.00">solid</text>
</g>
<!-- diagonals -->
<g id="node6" class="node"><title>diagonals</title>
<ellipse fill="none" stroke="black" cx="44.846" cy="-18" rx="44.6926" ry="18"/>
<polyline fill="none" stroke="black" points="74.5072,-31.5 15.1849,-31.5 "/>
<polyline fill="none" stroke="black" points="74.5072,-4.5 15.1849,-4.5 "/>
<text text-anchor="middle" x="44.846" y="-14.3" font-family="Times New Roman,serif" font-size="14.00">diagonals</text>
</g>
<!-- solid&#45;&gt;diagonals -->
<!-- dotted -->
<g id="node3" class="node"><title>dotted</title>
<ellipse fill="none" stroke="black" stroke-dasharray="1,5" cx="282.846" cy="-105" rx="34.394" ry="18"/>
<text text-anchor="middle" x="282.846" y="-101.3" font-family="Times New Roman,serif" font-size="14.00">dotted</text>
</g>
<!-- dashed&#45;&gt;dotted -->
<g id="edge2" class="edge"><title>dashed&#45;&gt;dotted</title>
<path fill="none" stroke="black" stroke-dasharray="5,2" d="M191.526,-105C206.051,-105 222.888,-105 238.119,-105"/>
<polygon fill="black" stroke="black" points="238.359,-108.5 248.359,-105 238.359,-101.5 238.359,-108.5"/>
<text text-anchor="middle" x="219.821" y="-111.8" font-family="Times New Roman,serif" font-size="14.00">dashed</text>
</g>
<!-- bold -->
<g id="node4" class="node"><title>bold</title>
<ellipse fill="none" stroke="black" stroke-width="2" cx="398.846" cy="-105" rx="27.0966" ry="18"/>
<text text-anchor="middle" x="398.846" y="-101.3" font-family="Times New Roman,serif" font-size="14.00">bold</text>
</g>
<!-- dotted&#45;&gt;bold -->
<g id="edge3" class="edge"><title>dotted&#45;&gt;bold</title>
<path fill="none" stroke="black" stroke-dasharray="1,5" d="M317.336,-105C331.066,-105 346.913,-105 360.962,-105"/>
<polygon fill="black" stroke="black" points="361.29,-108.5 371.29,-105 361.29,-101.5 361.29,-108.5"/>
<text text-anchor="middle" x="344.421" y="-111.8" font-family="Times New Roman,serif" font-size="14.00">dotted</text>
</g>
<!-- invis -->
<!-- bold&#45;&gt;invis -->
<g id="edge4" class="edge"><title>bold&#45;&gt;invis</title>
<path fill="none" stroke="black" stroke-width="2" d="M426.144,-105C436.359,-105 448.151,-105 459.141,-105"/>
<polygon fill="black" stroke="black" stroke-width="2" points="459.354,-108.5 469.354,-105 459.354,-101.5 459.354,-108.5"/>
<text text-anchor="middle" x="447.846" y="-111.8" font-family="Times New Roman,serif" font-size="14.00">bold</text>
</g>
<!-- filled -->
<g id="node7" class="node"><title>filled</title>
<ellipse fill="lightgrey" stroke="black" cx="570.846" cy="-105" rx="28.6953" ry="18"/>
<text text-anchor="middle" x="570.846" y="-101.3" font-family="Times New Roman,serif" font-size="14.00">filled</text>
</g>
<!-- rounded -->
<g id="node8" class="node"><title>rounded</title>
<ellipse fill="none" stroke="black" cx="148.846" cy="-18" rx="40.8928" ry="18"/>
<text text-anchor="middle" x="148.846" y="-14.3" font-family="Times New Roman,serif" font-size="14.00">rounded</text>
</g>
</g>
</svg>
