<?xml version="1.0" encoding="UTF-8" standalone="no"?>
<!DOCTYPE svg PUBLIC "-//W3C//DTD SVG 1.1//EN"
 "http://www.w3.org/Graphics/SVG/1.1/DTD/svg11.dtd">
<!-- Generated by graphviz version 2.40.1 (20161225.0304)
 -->
<!-- Title: javaCollection Pages: 1 -->
<svg width="1152pt" height="496pt"
 viewBox="0.00 0.00 1152.00 495.52" xmlns="http://www.w3.org/2000/svg" xmlns:xlink="http://www.w3.org/1999/xlink">
<g id="graph0" class="graph" transform="scale(.8755 .8755) rotate(0) translate(4 562)">
<title>javaCollection</title>
<polygon fill="#ffffff" stroke="transparent" points="-4,4 -4,-562 1311.8672,-562 1311.8672,4 -4,4"/>
<!-- generic_types -->
<g id="node1" class="node">
<title>generic_types</title>
<polygon fill="none" stroke="#8559a5" stroke-width="2" points="1227.1993,-558 1114.4335,-558 1114.4335,-470 1233.1993,-470 1233.1993,-552 1227.1993,-558"/>
<polyline fill="none" stroke="#8559a5" stroke-width="2" points="1227.1993,-558 1227.1993,-552 "/>
<polyline fill="none" stroke="#8559a5" stroke-width="2" points="1233.1993,-552 1227.1993,-552 "/>
<text text-anchor="middle" x="1173.8164" y="-541.2" font-family="Helvetia" font-size="16.00" fill="#000000">Generic Types</text>
<text text-anchor="middle" x="1173.8164" y="-525.2" font-family="Helvetia" font-size="16.00" fill="#000000">&#45;&#45;&#45;&#45;&#45;&#45;&#45;&#45;&#45;&#45;&#45;&#45;&#45;&#45;&#45;&#45;</text>
<text text-anchor="start" x="1122.375" y="-509.2" font-family="Helvetia" font-size="16.00" fill="#000000">E: element</text>
<text text-anchor="start" x="1122.375" y="-493.2" font-family="Helvetia" font-size="16.00" fill="#000000">K: key</text>
<text text-anchor="start" x="1122.375" y="-477.2" font-family="Helvetia" font-size="16.00" fill="#000000">V: value</text>
</g>
<!-- object -->
<g id="node2" class="node">
<title>object</title>
<polygon fill="#e4007c" stroke="#ffffff" points="755.0511,-543 624.5818,-543 624.5818,-485 755.0511,-485 755.0511,-543"/>
<text text-anchor="middle" x="689.8164" y="-509.2" font-family="Helvetia" font-size="16.00" fill="#ffffff">java.lang.Object</text>
</g>
<!-- object&#45;&gt;generic_types -->
<!-- abstract_collection -->
<g id="node8" class="node">
<title>abstract_collection</title>
<polygon fill="#096386" stroke="#ffffff" points="720.1214,-434 545.5115,-434 545.5115,-376 720.1214,-376 720.1214,-434"/>
<text text-anchor="middle" x="632.8164" y="-400.2" font-family="Helvetia" font-size="16.00" fill="#ffffff">AbstractCollection&lt;E&gt;</text>
</g>
<!-- object&#45;&gt;abstract_collection -->
<g id="edge2" class="edge">
<title>object&#45;&gt;abstract_collection</title>
<path fill="none" stroke="#484c7f" d="M669.7689,-475.6635C662.6617,-462.0726 654.7835,-447.0073 648.1335,-434.2906"/>
<polygon fill="none" stroke="#484c7f" points="666.8059,-477.5504 674.5415,-484.79 673.0089,-474.3066 666.8059,-477.5504"/>
</g>
<!-- abstract_map -->
<g id="node18" class="node">
<title>abstract_map</title>
<polygon fill="#fab95b" stroke="#ffffff" points="978.1057,-340 827.5271,-340 827.5271,-282 978.1057,-282 978.1057,-340"/>
<text text-anchor="middle" x="902.8164" y="-306.2" font-family="Helvetia" font-size="16.00" fill="#ffffff">AbstractMap&lt;K,V&gt;</text>
</g>
<!-- object&#45;&gt;abstract_map -->
<g id="edge3" class="edge">
<title>object&#45;&gt;abstract_map</title>
<path fill="none" stroke="#484c7f" d="M727.7543,-477.8432C769.0485,-438.4877 834.2634,-376.3345 872.3553,-340.031"/>
<polygon fill="none" stroke="#484c7f" points="725.1584,-475.4823 720.3341,-484.915 729.9878,-480.5496 725.1584,-475.4823"/>
</g>
<!-- collection -->
<g id="node3" class="node">
<title>collection</title>
<polygon fill="#00b7a8" stroke="#ffffff" points="760.4498,-340 645.183,-340 645.183,-282 760.4498,-282 760.4498,-340"/>
<text text-anchor="middle" x="702.8164" y="-314.2" font-family="Helvetia" font-size="16.00" fill="#ffffff">&lt;&lt;Interface&gt;&gt;</text>
<text text-anchor="middle" x="702.8164" y="-298.2" font-family="Helvetia" font-size="16.00" fill="#ffffff">Collection&lt;E&gt;</text>
</g>
<!-- set -->
<g id="node4" class="node">
<title>set</title>
<polygon fill="#00b7a8" stroke="#ffffff" points="509.4498,-246 394.183,-246 394.183,-188 509.4498,-188 509.4498,-246"/>
<text text-anchor="middle" x="451.8164" y="-220.2" font-family="Helvetia" font-size="16.00" fill="#ffffff">&lt;&lt;Interface&gt;&gt;</text>
<text text-anchor="middle" x="451.8164" y="-204.2" font-family="Helvetia" font-size="16.00" fill="#ffffff">Set&lt;E&gt;</text>
</g>
<!-- map -->
<g id="node6" class="node">
<title>map</title>
<polygon fill="#00b7a8" stroke="#ffffff" points="985.4498,-246 870.183,-246 870.183,-188 985.4498,-188 985.4498,-246"/>
<text text-anchor="middle" x="927.8164" y="-220.2" font-family="Helvetia" font-size="16.00" fill="#ffffff">&lt;&lt;Interface&gt;&gt;</text>
<text text-anchor="middle" x="927.8164" y="-204.2" font-family="Helvetia" font-size="16.00" fill="#ffffff">Map&lt;K,V&gt;</text>
</g>
<!-- set&#45;&gt;map -->
<!-- list -->
<g id="node5" class="node">
<title>list</title>
<polygon fill="#00b7a8" stroke="#ffffff" points="115.4498,-246 .183,-246 .183,-188 115.4498,-188 115.4498,-246"/>
<text text-anchor="middle" x="57.8164" y="-220.2" font-family="Helvetia" font-size="16.00" fill="#ffffff">&lt;&lt;Interface&gt;&gt;</text>
<text text-anchor="middle" x="57.8164" y="-204.2" font-family="Helvetia" font-size="16.00" fill="#ffffff">List&lt;E&gt;</text>
</g>
<!-- list&#45;&gt;set -->
<!-- serializable -->
<g id="node7" class="node">
<title>serializable</title>
<polygon fill="#00b7a8" stroke="#ffffff" points="755.504,-58 612.1288,-58 612.1288,0 755.504,0 755.504,-58"/>
<text text-anchor="middle" x="683.8164" y="-32.2" font-family="Helvetia" font-size="16.00" fill="#ffffff">&lt;&lt;Interface&gt;&gt;</text>
<text text-anchor="middle" x="683.8164" y="-16.2" font-family="Helvetia" font-size="16.00" fill="#ffffff">Serializable&lt;K,V&gt;</text>
</g>
<!-- abstract_collection&#45;&gt;collection -->
<g id="edge17" class="edge">
<title>abstract_collection&#45;&gt;collection</title>
<path fill="none" stroke="#484c7f" stroke-dasharray="5,2" d="M654.5811,-375.7731C661.0339,-367.1079 668.1906,-357.4975 674.9728,-348.3899"/>
<polygon fill="none" stroke="#484c7f" points="677.8996,-350.3197 681.0651,-340.2088 672.2853,-346.1388 677.8996,-350.3197"/>
</g>
<!-- abstract_set -->
<g id="node9" class="node">
<title>abstract_set</title>
<polygon fill="#930077" stroke="#ffffff" points="626.8789,-340 498.7539,-340 498.7539,-282 626.8789,-282 626.8789,-340"/>
<text text-anchor="middle" x="562.8164" y="-306.2" font-family="Helvetia" font-size="16.00" fill="#ffffff">AbstractSet&lt;E&gt;</text>
</g>
<!-- abstract_collection&#45;&gt;abstract_set -->
<g id="edge4" class="edge">
<title>abstract_collection&#45;&gt;abstract_set</title>
<path fill="none" stroke="#484c7f" d="M604.9587,-367.5911C598.176,-358.4828 591.0195,-348.8727 584.5677,-340.2088"/>
<polygon fill="none" stroke="#484c7f" points="602.2718,-369.8431 611.0517,-375.7731 607.8861,-365.6622 602.2718,-369.8431"/>
</g>
<!-- abstract_list -->
<g id="node14" class="node">
<title>abstract_list</title>
<polygon fill="#6e9086" stroke="#ffffff" points="430.2617,-340 301.3711,-340 301.3711,-282 430.2617,-282 430.2617,-340"/>
<text text-anchor="middle" x="365.8164" y="-306.2" font-family="Helvetia" font-size="16.00" fill="#ffffff">AbstractList&lt;E&gt;</text>
</g>
<!-- abstract_collection&#45;&gt;abstract_list -->
<g id="edge5" class="edge">
<title>abstract_collection&#45;&gt;abstract_list</title>
<path fill="none" stroke="#484c7f" d="M540.5407,-372.5134C504.206,-359.7214 463.354,-345.3391 430.2927,-333.6995"/>
<polygon fill="none" stroke="#484c7f" points="539.5696,-375.8821 550.1644,-375.9016 541.8942,-369.2793 539.5696,-375.8821"/>
</g>
<!-- abstract_set&#45;&gt;set -->
<g id="edge18" class="edge">
<title>abstract_set&#45;&gt;set</title>
<path fill="none" stroke="#484c7f" stroke-dasharray="5,2" d="M528.3038,-281.7731C517.445,-272.5774 505.3292,-262.3171 494.0001,-252.7231"/>
<polygon fill="none" stroke="#484c7f" points="496.2009,-250.0004 486.3077,-246.2088 491.6771,-255.3423 496.2009,-250.0004"/>
</g>
<!-- enum_set -->
<g id="node10" class="node">
<title>enum_set</title>
<polygon fill="#930077" stroke="#ffffff" points="550.4884,-152 439.1444,-152 439.1444,-94 550.4884,-94 550.4884,-152"/>
<text text-anchor="middle" x="494.8164" y="-118.2" font-family="Helvetia" font-size="16.00" fill="#ffffff">EnumSet&lt;E&gt;</text>
</g>
<!-- abstract_set&#45;&gt;enum_set -->
<g id="edge6" class="edge">
<title>abstract_set&#45;&gt;enum_set</title>
<path fill="none" stroke="#484c7f" d="M549.0131,-272.0952C540.3932,-247.8795 529.0302,-216.1009 518.8164,-188 514.5428,-176.242 509.7805,-163.3099 505.632,-152.0981"/>
<polygon fill="none" stroke="#484c7f" points="545.7607,-273.3954 552.4096,-281.6442 552.356,-271.0495 545.7607,-273.3954"/>
</g>
<!-- hash_set -->
<g id="node11" class="node">
<title>hash_set</title>
<polygon fill="#930077" stroke="#ffffff" points="672.0433,-246 565.5895,-246 565.5895,-188 672.0433,-188 672.0433,-246"/>
<text text-anchor="middle" x="618.8164" y="-212.2" font-family="Helvetia" font-size="16.00" fill="#ffffff">HashSet&lt;E&gt;</text>
</g>
<!-- abstract_set&#45;&gt;hash_set -->
<g id="edge7" class="edge">
<title>abstract_set&#45;&gt;hash_set</title>
<path fill="none" stroke="#484c7f" d="M585.4352,-273.0328C590.7622,-264.091 596.3593,-254.6959 601.4154,-246.2088"/>
<polygon fill="none" stroke="#484c7f" points="582.3394,-271.3907 580.2282,-281.7731 588.3531,-274.9734 582.3394,-271.3907"/>
</g>
<!-- tree_set -->
<g id="node13" class="node">
<title>tree_set</title>
<polygon fill="#930077" stroke="#ffffff" points="880.5044,-152 779.1284,-152 779.1284,-94 880.5044,-94 880.5044,-152"/>
<text text-anchor="middle" x="829.8164" y="-118.2" font-family="Helvetia" font-size="16.00" fill="#ffffff">TreeSet&lt;E&gt;</text>
</g>
<!-- abstract_set&#45;&gt;tree_set -->
<g id="edge8" class="edge">
<title>abstract_set&#45;&gt;tree_set</title>
<path fill="none" stroke="#484c7f" d="M635.7084,-278.1255C651.5805,-269.0514 667.5694,-258.2704 680.8164,-246 703.4253,-225.058 696.4845,-209.2371 718.8164,-188 728.7688,-178.5356 754.7819,-163.1606 779.1249,-149.7396"/>
<polygon fill="none" stroke="#484c7f" points="633.9748,-275.0847 626.9206,-282.9897 637.3648,-281.2091 633.9748,-275.0847"/>
</g>
<!-- abstract_set&#45;&gt;abstract_map -->
<!-- enum_set&#45;&gt;serializable -->
<g id="edge21" class="edge">
<title>enum_set&#45;&gt;serializable</title>
<path fill="none" stroke="#484c7f" stroke-dasharray="5,2" d="M550.5004,-95.3053C571.0801,-85.0699 594.6325,-73.356 616.1586,-62.6499"/>
<polygon fill="none" stroke="#484c7f" points="617.8503,-65.7176 625.2454,-58.1305 614.733,-59.45 617.8503,-65.7176"/>
</g>
<!-- hash_set&#45;&gt;serializable -->
<g id="edge22" class="edge">
<title>hash_set&#45;&gt;serializable</title>
<path fill="none" stroke="#484c7f" stroke-dasharray="5,2" d="M604.287,-187.9523C593.5022,-162.0615 583.0004,-123.7699 597.8164,-94 603.4092,-82.7623 611.9745,-72.9514 621.5709,-64.591"/>
<polygon fill="none" stroke="#484c7f" points="623.8907,-67.216 629.451,-58.1976 619.4803,-61.7802 623.8907,-67.216"/>
</g>
<!-- linked_hash_set -->
<g id="node12" class="node">
<title>linked_hash_set</title>
<polygon fill="#930077" stroke="#ffffff" points="760.6915,-152 606.9414,-152 606.9414,-94 760.6915,-94 760.6915,-152"/>
<text text-anchor="middle" x="683.8164" y="-118.2" font-family="Helvetia" font-size="16.00" fill="#ffffff">LinkedHashSet&lt;E&gt;</text>
</g>
<!-- hash_set&#45;&gt;linked_hash_set -->
<g id="edge9" class="edge">
<title>hash_set&#45;&gt;linked_hash_set</title>
<path fill="none" stroke="#484c7f" d="M644.8772,-179.3121C651.1181,-170.2868 657.6889,-160.7843 663.6188,-152.2088"/>
<polygon fill="none" stroke="#484c7f" points="641.8353,-177.5573 639.0265,-187.7731 647.5929,-181.5387 641.8353,-177.5573"/>
</g>
<!-- linked_hash_set&#45;&gt;serializable -->
<g id="edge23" class="edge">
<title>linked_hash_set&#45;&gt;serializable</title>
<path fill="none" stroke="#484c7f" stroke-dasharray="5,2" d="M683.8164,-93.7731C683.8164,-85.7268 683.8164,-76.8655 683.8164,-68.3487"/>
<polygon fill="none" stroke="#484c7f" points="687.3165,-68.2088 683.8164,-58.2088 680.3165,-68.2089 687.3165,-68.2088"/>
</g>
<!-- tree_set&#45;&gt;serializable -->
<g id="edge24" class="edge">
<title>tree_set&#45;&gt;serializable</title>
<path fill="none" stroke="#484c7f" stroke-dasharray="5,2" d="M784.4214,-93.7731C769.5187,-84.1782 752.816,-73.4244 737.3669,-63.4777"/>
<polygon fill="none" stroke="#484c7f" points="739.2352,-60.5179 728.9324,-58.0473 735.4458,-66.4036 739.2352,-60.5179"/>
</g>
<!-- abstract_list&#45;&gt;list -->
<g id="edge19" class="edge">
<title>abstract_list&#45;&gt;list</title>
<path fill="none" stroke="#484c7f" stroke-dasharray="5,2" d="M301.3667,-296.3139C254.6772,-285.0588 190.0304,-268.2083 125.2704,-245.9896"/>
<polygon fill="none" stroke="#484c7f" points="126.3118,-242.6463 115.7169,-242.6726 124.0157,-249.259 126.3118,-242.6463"/>
</g>
<!-- abstract_list&#45;&gt;abstract_set -->
<!-- abstract_sequential_list -->
<g id="node15" class="node">
<title>abstract_sequential_list</title>
<polygon fill="#6e9086" stroke="#ffffff" points="337.8794,-246 133.7534,-246 133.7534,-188 337.8794,-188 337.8794,-246"/>
<text text-anchor="middle" x="235.8164" y="-212.2" font-family="Helvetia" font-size="16.00" fill="#ffffff">AbstractSequentialList&lt;E&gt;</text>
</g>
<!-- abstract_list&#45;&gt;abstract_sequential_list -->
<g id="edge10" class="edge">
<title>abstract_list&#45;&gt;abstract_sequential_list</title>
<path fill="none" stroke="#484c7f" d="M317.1505,-275.8108C303.6628,-266.0582 289.1717,-255.58 276.2116,-246.2088"/>
<polygon fill="none" stroke="#484c7f" points="315.2419,-278.7498 325.3962,-281.7731 319.3435,-273.0774 315.2419,-278.7498"/>
</g>
<!-- array_list -->
<g id="node16" class="node">
<title>array_list</title>
<polygon fill="#6e9086" stroke="#ffffff" points="421.3019,-152 312.3309,-152 312.3309,-94 421.3019,-94 421.3019,-152"/>
<text text-anchor="middle" x="366.8164" y="-118.2" font-family="Helvetia" font-size="16.00" fill="#ffffff">ArrayList&lt;E&gt;</text>
</g>
<!-- abstract_list&#45;&gt;array_list -->
<g id="edge11" class="edge">
<title>abstract_list&#45;&gt;array_list</title>
<path fill="none" stroke="#484c7f" d="M366.0261,-271.5685C366.2158,-235.9118 366.4907,-184.2305 366.6613,-152.1687"/>
<polygon fill="none" stroke="#484c7f" points="362.526,-271.6065 365.9727,-281.625 369.5259,-271.6438 362.526,-271.6065"/>
</g>
<!-- linked_list -->
<g id="node17" class="node">
<title>linked_list</title>
<polygon fill="#6e9086" stroke="#ffffff" points="294.7234,-152 176.9095,-152 176.9095,-94 294.7234,-94 294.7234,-152"/>
<text text-anchor="middle" x="235.8164" y="-118.2" font-family="Helvetia" font-size="16.00" fill="#ffffff">LinkedList&lt;E&gt;</text>
</g>
<!-- abstract_sequential_list&#45;&gt;linked_list -->
<g id="edge12" class="edge">
<title>abstract_sequential_list&#45;&gt;linked_list</title>
<path fill="none" stroke="#484c7f" d="M235.8164,-177.6321C235.8164,-169.1148 235.8164,-160.2539 235.8164,-152.2088"/>
<polygon fill="none" stroke="#484c7f" points="232.3165,-177.773 235.8164,-187.7731 239.3165,-177.7731 232.3165,-177.773"/>
</g>
<!-- array_list&#45;&gt;serializable -->
<g id="edge25" class="edge">
<title>array_list&#45;&gt;serializable</title>
<path fill="none" stroke="#484c7f" stroke-dasharray="5,2" d="M421.2017,-97.2344C424.0959,-96.0931 426.9795,-95.0066 429.8164,-94 486.3209,-73.9509 551.9226,-57.3255 602.3011,-45.9083"/>
<polygon fill="none" stroke="#484c7f" points="603.1755,-49.2992 612.1667,-43.6948 601.643,-42.469 603.1755,-49.2992"/>
</g>
<!-- linked_list&#45;&gt;serializable -->
<g id="edge26" class="edge">
<title>linked_list&#45;&gt;serializable</title>
<path fill="none" stroke="#484c7f" stroke-dasharray="5,2" d="M294.8551,-96.8598C297.863,-95.8313 300.8615,-94.8698 303.8164,-94 404.2836,-64.4276 523.9022,-46.7222 601.7258,-37.4251"/>
<polygon fill="none" stroke="#484c7f" points="602.4268,-40.8669 611.9499,-36.2234 601.6096,-33.9147 602.4268,-40.8669"/>
</g>
<!-- abstract_map&#45;&gt;map -->
<g id="edge20" class="edge">
<title>abstract_map&#45;&gt;map</title>
<path fill="none" stroke="#484c7f" stroke-dasharray="5,2" d="M910.5895,-281.7731C912.753,-273.6384 915.138,-264.6707 917.426,-256.0681"/>
<polygon fill="none" stroke="#484c7f" points="920.8602,-256.7725 920.0481,-246.2088 914.0954,-254.9733 920.8602,-256.7725"/>
</g>
<!-- enum_map -->
<g id="node19" class="node">
<title>enum_map</title>
<polygon fill="#fab95b" stroke="#ffffff" points="1137.7154,-246 1003.9174,-246 1003.9174,-188 1137.7154,-188 1137.7154,-246"/>
<text text-anchor="middle" x="1070.8164" y="-212.2" font-family="Helvetia" font-size="16.00" fill="#ffffff">EnumMap&lt;K,V&gt;</text>
</g>
<!-- abstract_map&#45;&gt;enum_map -->
<g id="edge13" class="edge">
<title>abstract_map&#45;&gt;enum_map</title>
<path fill="none" stroke="#484c7f" d="M963.7822,-276.8882C981.8519,-266.7778 1001.4627,-255.805 1018.9021,-246.0473"/>
<polygon fill="none" stroke="#484c7f" points="962.0696,-273.8358 955.0517,-281.7731 965.4876,-279.9446 962.0696,-273.8358"/>
</g>
<!-- hash_map -->
<g id="node20" class="node">
<title>hash_map</title>
<polygon fill="#fab95b" stroke="#ffffff" points="1284.2695,-246 1155.3633,-246 1155.3633,-188 1284.2695,-188 1284.2695,-246"/>
<text text-anchor="middle" x="1219.8164" y="-212.2" font-family="Helvetia" font-size="16.00" fill="#ffffff">HashMap&lt;K,V&gt;</text>
</g>
<!-- abstract_map&#45;&gt;hash_map -->
<g id="edge14" class="edge">
<title>abstract_map&#45;&gt;hash_map</title>
<path fill="none" stroke="#484c7f" d="M987.8533,-290.9626C1035.0752,-279.1838 1094.6477,-263.2444 1146.8164,-246 1149.5355,-245.1012 1152.2997,-244.1547 1155.0833,-243.1744"/>
<polygon fill="none" stroke="#484c7f" points="986.8355,-287.6089 977.9712,-293.4119 988.5196,-294.4033 986.8355,-287.6089"/>
</g>
<!-- tree_map -->
<g id="node21" class="node">
<title>tree_map</title>
<polygon fill="#fab95b" stroke="#ffffff" points="851.7305,-246 727.9023,-246 727.9023,-188 851.7305,-188 851.7305,-246"/>
<text text-anchor="middle" x="789.8164" y="-212.2" font-family="Helvetia" font-size="16.00" fill="#ffffff">TreeMap&lt;K,V&gt;</text>
</g>
<!-- abstract_map&#45;&gt;tree_map -->
<g id="edge15" class="edge">
<title>abstract_map&#45;&gt;tree_map</title>
<path fill="none" stroke="#484c7f" d="M859.85,-275.258C848.3157,-265.6631 835.9819,-255.4032 824.9292,-246.2088"/>
<polygon fill="none" stroke="#484c7f" points="857.7558,-278.0686 867.6819,-281.7731 862.2324,-272.6872 857.7558,-278.0686"/>
</g>
<!-- enum_map&#45;&gt;serializable -->
<g id="edge27" class="edge">
<title>enum_map&#45;&gt;serializable</title>
<path fill="none" stroke="#484c7f" stroke-dasharray="5,2" d="M1040.2163,-187.9712C1009.4686,-160.2399 959.6186,-119.0613 909.8164,-94 864.3835,-71.1373 809.6494,-55.1334 765.4257,-44.7269"/>
<polygon fill="none" stroke="#484c7f" points="766.111,-41.2932 755.5807,-42.4613 764.541,-48.1149 766.111,-41.2932"/>
</g>
<!-- hash_map&#45;&gt;serializable -->
<g id="edge28" class="edge">
<title>hash_map&#45;&gt;serializable</title>
<path fill="none" stroke="#484c7f" stroke-dasharray="5,2" d="M1169.1882,-187.9879C1119.3377,-160.4672 1040.3446,-119.6182 967.8164,-94 901.3416,-70.5199 823.0648,-53.3394 765.5429,-42.5591"/>
<polygon fill="none" stroke="#484c7f" points="765.8829,-39.0628 755.4133,-40.6866 764.6104,-45.9461 765.8829,-39.0628"/>
</g>
<!-- linked_hash_map -->
<g id="node22" class="node">
<title>linked_hash_map</title>
<polygon fill="#fab95b" stroke="#ffffff" points="1307.918,-152 1131.7148,-152 1131.7148,-94 1307.918,-94 1307.918,-152"/>
<text text-anchor="middle" x="1219.8164" y="-118.2" font-family="Helvetia" font-size="16.00" fill="#ffffff">LinkedHashMap&lt;K,V&gt;</text>
</g>
<!-- hash_map&#45;&gt;linked_hash_map -->
<g id="edge16" class="edge">
<title>hash_map&#45;&gt;linked_hash_map</title>
<path fill="none" stroke="#484c7f" d="M1219.8164,-177.6321C1219.8164,-169.1148 1219.8164,-160.2539 1219.8164,-152.2088"/>
<polygon fill="none" stroke="#484c7f" points="1216.3165,-177.773 1219.8164,-187.7731 1223.3165,-177.7731 1216.3165,-177.773"/>
</g>
<!-- tree_map&#45;&gt;serializable -->
<g id="edge29" class="edge">
<title>tree_map&#45;&gt;serializable</title>
<path fill="none" stroke="#484c7f" stroke-dasharray="5,2" d="M851.7843,-190.1195C866.9223,-180.412 881.2239,-167.8333 889.8164,-152 902.1118,-129.3435 905.0568,-114.79 889.8164,-94 874.5645,-73.1943 816.21,-55.9782 765.4858,-44.5025"/>
<polygon fill="none" stroke="#484c7f" points="765.9776,-41.0268 755.4577,-42.2846 764.4659,-47.8616 765.9776,-41.0268"/>
</g>
</g>
</svg>
