<?xml version="1.0" encoding="UTF-8" standalone="no"?>
<!DOCTYPE svg PUBLIC "-//W3C//DTD SVG 1.1//EN"
 "http://www.w3.org/Graphics/SVG/1.1/DTD/svg11.dtd">
<!-- Generated by graphviz version 2.38.0 (20140413.2041)
 -->
<!-- Title: javaCollection Pages: 1 -->
<svg width="1152pt" height="427pt"
 viewBox="0.00 0.00 1152.00 427.00" xmlns="http://www.w3.org/2000/svg" xmlns:xlink="http://www.w3.org/1999/xlink">
<g id="graph0" class="graph" transform="scale(0.741313 0.741313) rotate(0) translate(4 572)">
<title>javaCollection</title>
<polygon fill="white" stroke="none" points="-4,4 -4,-572 1550,-572 1550,4 -4,4"/>
<!-- package -->
<g id="node1" class="node"><title>package</title>
<text text-anchor="middle" x="52" y="-515.2" font-family="Source Code Pro" font-size="16.00">java.util</text>
</g>
<!-- object -->
<g id="node3" class="node"><title>object</title>
<polygon fill="#e4007c" stroke="#ffffff" points="996.5,-548 823.5,-548 823.5,-490 996.5,-490 996.5,-548"/>
<text text-anchor="middle" x="910" y="-515.2" font-family="Source Code Pro" font-size="16.00" fill="#ffffff">java.lang.Object</text>
</g>
<!-- package&#45;&gt;object -->
<!-- generic_types -->
<g id="node2" class="node"><title>generic_types</title>
<polygon fill="none" stroke="#8559a5" stroke-width="2" points="1503.5,-568 1356.5,-568 1356.5,-470 1509.5,-470 1509.5,-562 1503.5,-568"/>
<polyline fill="none" stroke="#8559a5" stroke-width="2" points="1503.5,-568 1503.5,-562 "/>
<polyline fill="none" stroke="#8559a5" stroke-width="2" points="1509.5,-562 1503.5,-562 "/>
<text text-anchor="middle" x="1433" y="-551.2" font-family="Source Code Pro" font-size="16.00">Generic Types</text>
<text text-anchor="middle" x="1433" y="-533.2" font-family="Source Code Pro" font-size="16.00">&#45;&#45;&#45;&#45;&#45;&#45;&#45;&#45;&#45;&#45;&#45;&#45;&#45;&#45;</text>
<text text-anchor="start" x="1364.5" y="-515.2" font-family="Source Code Pro" font-size="16.00">E: elementss</text>
<text text-anchor="start" x="1364.5" y="-497.2" font-family="Source Code Pro" font-size="16.00">K: key</text>
<text text-anchor="start" x="1364.5" y="-479.2" font-family="Source Code Pro" font-size="16.00">V: value</text>
</g>
<!-- object&#45;&gt;generic_types -->
<!-- abstract_collection -->
<g id="node9" class="node"><title>abstract_collection</title>
<polygon fill="#096386" stroke="#ffffff" points="900.5,-434 679.5,-434 679.5,-376 900.5,-376 900.5,-434"/>
<text text-anchor="middle" x="790" y="-401.2" font-family="Source Code Pro" font-size="16.00" fill="#ffffff">AbstractCollection&lt;E&gt;</text>
</g>
<!-- object&#45;&gt;abstract_collection -->
<g id="edge3" class="edge"><title>object&#45;&gt;abstract_collection</title>
<path fill="none" stroke="#484c7f" d="M872.236,-482.753C855.487,-467.121 836.045,-448.975 820.271,-434.253"/>
<polygon fill="none" stroke="#484c7f" points="870.02,-485.473 879.719,-489.738 874.796,-480.356 870.02,-485.473"/>
</g>
<!-- abstract_map -->
<g id="node19" class="node"><title>abstract_map</title>
<polygon fill="#fab95b" stroke="#ffffff" points="1207.5,-340 1034.5,-340 1034.5,-282 1207.5,-282 1207.5,-340"/>
<text text-anchor="middle" x="1121" y="-307.2" font-family="Source Code Pro" font-size="16.00" fill="#ffffff">AbstractMap&lt;K,V&gt;</text>
</g>
<!-- object&#45;&gt;abstract_map -->
<g id="edge4" class="edge"><title>object&#45;&gt;abstract_map</title>
<path fill="none" stroke="#484c7f" d="M946.299,-482.561C987.591,-442.248 1054.19,-377.229 1092.11,-340.201"/>
<polygon fill="none" stroke="#484c7f" points="943.607,-480.298 938.896,-489.789 948.497,-485.307 943.607,-480.298"/>
</g>
<!-- collection -->
<g id="node4" class="node"><title>collection</title>
<polygon fill="#00b7a8" stroke="#ffffff" points="976.5,-340 833.5,-340 833.5,-282 976.5,-282 976.5,-340"/>
<text text-anchor="middle" x="905" y="-316.2" font-family="Source Code Pro" font-size="16.00" fill="#ffffff">&lt;&lt;Interface&gt;&gt;</text>
<text text-anchor="middle" x="905" y="-298.2" font-family="Source Code Pro" font-size="16.00" fill="#ffffff">Collection&lt;E&gt;</text>
</g>
<!-- set -->
<g id="node5" class="node"><title>set</title>
<polygon fill="#00b7a8" stroke="#ffffff" points="690.5,-246 547.5,-246 547.5,-188 690.5,-188 690.5,-246"/>
<text text-anchor="middle" x="619" y="-222.2" font-family="Source Code Pro" font-size="16.00" fill="#ffffff">&lt;&lt;Interface&gt;&gt;</text>
<text text-anchor="middle" x="619" y="-204.2" font-family="Source Code Pro" font-size="16.00" fill="#ffffff">Set&lt;E&gt;</text>
</g>
<!-- map -->
<g id="node7" class="node"><title>map</title>
<polygon fill="#00b7a8" stroke="#ffffff" points="1212.5,-246 1069.5,-246 1069.5,-188 1212.5,-188 1212.5,-246"/>
<text text-anchor="middle" x="1141" y="-222.2" font-family="Source Code Pro" font-size="16.00" fill="#ffffff">&lt;&lt;Interface&gt;&gt;</text>
<text text-anchor="middle" x="1141" y="-204.2" font-family="Source Code Pro" font-size="16.00" fill="#ffffff">Map&lt;K,V&gt;</text>
</g>
<!-- set&#45;&gt;map -->
<!-- list -->
<g id="node6" class="node"><title>list</title>
<polygon fill="#00b7a8" stroke="#ffffff" points="212.5,-246 69.5,-246 69.5,-188 212.5,-188 212.5,-246"/>
<text text-anchor="middle" x="141" y="-222.2" font-family="Source Code Pro" font-size="16.00" fill="#ffffff">&lt;&lt;Interface&gt;&gt;</text>
<text text-anchor="middle" x="141" y="-204.2" font-family="Source Code Pro" font-size="16.00" fill="#ffffff">List&lt;E&gt;</text>
</g>
<!-- list&#45;&gt;set -->
<!-- serializable -->
<g id="node8" class="node"><title>serializable</title>
<polygon fill="#00b7a8" stroke="#ffffff" points="952,-58 770,-58 770,-0 952,-0 952,-58"/>
<text text-anchor="middle" x="861" y="-34.2" font-family="Source Code Pro" font-size="16.00" fill="#ffffff">&lt;&lt;Interface&gt;&gt;</text>
<text text-anchor="middle" x="861" y="-16.2" font-family="Source Code Pro" font-size="16.00" fill="#ffffff">Serializable&lt;K,V&gt;</text>
</g>
<!-- abstract_collection&#45;&gt;collection -->
<g id="edge18" class="edge"><title>abstract_collection&#45;&gt;collection</title>
<path fill="none" stroke="#484c7f" stroke-dasharray="5,2" d="M825.129,-375.897C836.724,-366.621 849.758,-356.194 861.88,-346.496"/>
<polygon fill="none" stroke="#484c7f" points="864.068,-349.228 869.69,-340.248 859.695,-343.762 864.068,-349.228"/>
</g>
<!-- abstract_set -->
<g id="node10" class="node"><title>abstract_set</title>
<polygon fill="#930077" stroke="#ffffff" points="815.5,-340 662.5,-340 662.5,-282 815.5,-282 815.5,-340"/>
<text text-anchor="middle" x="739" y="-307.2" font-family="Source Code Pro" font-size="16.00" fill="#ffffff">AbstractSet&lt;E&gt;</text>
</g>
<!-- abstract_collection&#45;&gt;abstract_set -->
<g id="edge5" class="edge"><title>abstract_collection&#45;&gt;abstract_set</title>
<path fill="none" stroke="#484c7f" d="M769.571,-367.148C764.603,-358.186 759.367,-348.74 754.659,-340.248"/>
<polygon fill="none" stroke="#484c7f" points="766.512,-368.848 774.421,-375.897 772.634,-365.454 766.512,-368.848"/>
</g>
<!-- abstract_list -->
<g id="node15" class="node"><title>abstract_list</title>
<polygon fill="#6e9086" stroke="#ffffff" points="600.5,-340 437.5,-340 437.5,-282 600.5,-282 600.5,-340"/>
<text text-anchor="middle" x="519" y="-307.2" font-family="Source Code Pro" font-size="16.00" fill="#ffffff">AbstractList&lt;E&gt;</text>
</g>
<!-- abstract_collection&#45;&gt;abstract_list -->
<g id="edge6" class="edge"><title>abstract_collection&#45;&gt;abstract_list</title>
<path fill="none" stroke="#484c7f" d="M697.591,-372.629C666.183,-361.966 631.328,-350.134 600.809,-339.773"/>
<polygon fill="none" stroke="#484c7f" points="696.624,-375.997 707.219,-375.897 698.874,-369.368 696.624,-375.997"/>
</g>
<!-- abstract_set&#45;&gt;set -->
<g id="edge19" class="edge"><title>abstract_set&#45;&gt;set</title>
<path fill="none" stroke="#484c7f" stroke-dasharray="5,2" d="M702.344,-281.897C690.244,-272.621 676.644,-262.194 663.995,-252.496"/>
<polygon fill="none" stroke="#484c7f" points="665.911,-249.555 655.845,-246.248 661.652,-255.11 665.911,-249.555"/>
</g>
<!-- enum_set -->
<g id="node11" class="node"><title>enum_set</title>
<polygon fill="#930077" stroke="#ffffff" points="718,-152 604,-152 604,-94 718,-94 718,-152"/>
<text text-anchor="middle" x="661" y="-119.2" font-family="Source Code Pro" font-size="16.00" fill="#ffffff">EnumSet&lt;E&gt;</text>
</g>
<!-- abstract_set&#45;&gt;enum_set -->
<g id="edge7" class="edge"><title>abstract_set&#45;&gt;enum_set</title>
<path fill="none" stroke="#484c7f" d="M729.375,-272.012C722.553,-247.488 712.42,-215.2 700,-188 694.433,-175.809 687.033,-163.067 680.175,-152.192"/>
<polygon fill="none" stroke="#484c7f" points="726.001,-272.943 732.003,-281.674 732.755,-271.105 726.001,-272.943"/>
</g>
<!-- hash_set -->
<g id="node12" class="node"><title>hash_set</title>
<polygon fill="#930077" stroke="#ffffff" points="861,-246 747,-246 747,-188 861,-188 861,-246"/>
<text text-anchor="middle" x="804" y="-213.2" font-family="Source Code Pro" font-size="16.00" fill="#ffffff">HashSet&lt;E&gt;</text>
</g>
<!-- abstract_set&#45;&gt;hash_set -->
<g id="edge8" class="edge"><title>abstract_set&#45;&gt;hash_set</title>
<path fill="none" stroke="#484c7f" d="M764.641,-273.708C771.09,-264.58 777.917,-254.917 784.042,-246.248"/>
<polygon fill="none" stroke="#484c7f" points="761.767,-271.71 758.855,-281.897 767.484,-275.749 761.767,-271.71"/>
</g>
<!-- tree_set -->
<g id="node14" class="node"><title>tree_set</title>
<polygon fill="#930077" stroke="#ffffff" points="1080,-152 966,-152 966,-94 1080,-94 1080,-152"/>
<text text-anchor="middle" x="1023" y="-119.2" font-family="Source Code Pro" font-size="16.00" fill="#ffffff">TreeSet&lt;E&gt;</text>
</g>
<!-- abstract_set&#45;&gt;tree_set -->
<g id="edge9" class="edge"><title>abstract_set&#45;&gt;tree_set</title>
<path fill="none" stroke="#484c7f" d="M823.171,-277.222C839.732,-268.55 856.223,-258.147 870,-246 893.116,-225.619 885.437,-208.991 908,-188 924.813,-172.359 946.148,-159.135 965.864,-148.841"/>
<polygon fill="none" stroke="#484c7f" points="821.33,-274.23 813.98,-281.861 824.485,-280.479 821.33,-274.23"/>
</g>
<!-- abstract_set&#45;&gt;abstract_map -->
<!-- enum_set&#45;&gt;serializable -->
<g id="edge22" class="edge"><title>enum_set&#45;&gt;serializable</title>
<path fill="none" stroke="#484c7f" stroke-dasharray="5,2" d="M718.044,-95.7596C740.672,-85.3507 766.923,-73.2753 790.708,-62.3343"/>
<polygon fill="none" stroke="#484c7f" points="792.413,-65.4026 800.035,-58.0437 789.488,-59.0431 792.413,-65.4026"/>
</g>
<!-- hash_set&#45;&gt;serializable -->
<g id="edge23" class="edge"><title>hash_set&#45;&gt;serializable</title>
<path fill="none" stroke="#484c7f" stroke-dasharray="5,2" d="M783.067,-187.694C766.964,-162.183 749.953,-124.16 766,-94 772.178,-82.3882 781.505,-72.5045 791.942,-64.2309"/>
<polygon fill="none" stroke="#484c7f" points="794.131,-66.9657 800.105,-58.216 789.978,-61.3302 794.131,-66.9657"/>
</g>
<!-- linked_hash_set -->
<g id="node13" class="node"><title>linked_hash_set</title>
<polygon fill="#930077" stroke="#ffffff" points="947.5,-152 774.5,-152 774.5,-94 947.5,-94 947.5,-152"/>
<text text-anchor="middle" x="861" y="-119.2" font-family="Source Code Pro" font-size="16.00" fill="#ffffff">LinkedHashSet&lt;E&gt;</text>
</g>
<!-- hash_set&#45;&gt;linked_hash_set -->
<g id="edge10" class="edge"><title>hash_set&#45;&gt;linked_hash_set</title>
<path fill="none" stroke="#484c7f" d="M826.832,-179.148C832.385,-170.186 838.237,-160.74 843.499,-152.248"/>
<polygon fill="none" stroke="#484c7f" points="823.703,-177.553 821.412,-187.897 829.654,-181.24 823.703,-177.553"/>
</g>
<!-- linked_hash_set&#45;&gt;serializable -->
<g id="edge24" class="edge"><title>linked_hash_set&#45;&gt;serializable</title>
<path fill="none" stroke="#484c7f" stroke-dasharray="5,2" d="M861,-93.8971C861,-85.8575 861,-76.9539 861,-68.4096"/>
<polygon fill="none" stroke="#484c7f" points="864.5,-68.2478 861,-58.2479 857.5,-68.2479 864.5,-68.2478"/>
</g>
<!-- tree_set&#45;&gt;serializable -->
<g id="edge25" class="edge"><title>tree_set&#45;&gt;serializable</title>
<path fill="none" stroke="#484c7f" stroke-dasharray="5,2" d="M973.514,-93.8971C956.478,-84.2223 937.239,-73.2962 919.55,-63.2508"/>
<polygon fill="none" stroke="#484c7f" points="920.886,-59.9841 910.461,-58.0892 917.429,-66.071 920.886,-59.9841"/>
</g>
<!-- abstract_list&#45;&gt;list -->
<g id="edge20" class="edge"><title>abstract_list&#45;&gt;list</title>
<path fill="none" stroke="#484c7f" stroke-dasharray="5,2" d="M437.363,-295.162C379.794,-284.06 300.804,-267.548 222.843,-246.116"/>
<polygon fill="none" stroke="#484c7f" points="223.419,-242.644 212.847,-243.34 221.545,-249.388 223.419,-242.644"/>
</g>
<!-- abstract_list&#45;&gt;abstract_set -->
<!-- abstract_sequential_list -->
<g id="node16" class="node"><title>abstract_sequential_list</title>
<polygon fill="#6e9086" stroke="#ffffff" points="491,-246 231,-246 231,-188 491,-188 491,-246"/>
<text text-anchor="middle" x="361" y="-213.2" font-family="Source Code Pro" font-size="16.00" fill="#ffffff">AbstractSequentialList&lt;E&gt;</text>
</g>
<!-- abstract_list&#45;&gt;abstract_sequential_list -->
<g id="edge11" class="edge"><title>abstract_list&#45;&gt;abstract_sequential_list</title>
<path fill="none" stroke="#484c7f" d="M461.871,-276.735C444.618,-266.689 425.854,-255.763 409.24,-246.089"/>
<polygon fill="none" stroke="#484c7f" points="460.333,-279.89 470.736,-281.897 463.856,-273.84 460.333,-279.89"/>
</g>
<!-- array_list -->
<g id="node17" class="node"><title>array_list</title>
<polygon fill="#6e9086" stroke="#ffffff" points="586,-152 452,-152 452,-94 586,-94 586,-152"/>
<text text-anchor="middle" x="519" y="-119.2" font-family="Source Code Pro" font-size="16.00" fill="#ffffff">ArrayList&lt;E&gt;</text>
</g>
<!-- abstract_list&#45;&gt;array_list -->
<g id="edge12" class="edge"><title>abstract_list&#45;&gt;array_list</title>
<path fill="none" stroke="#484c7f" d="M519,-271.746C519,-236.206 519,-184.104 519,-152.21"/>
<polygon fill="none" stroke="#484c7f" points="515.5,-271.751 519,-281.751 522.5,-271.751 515.5,-271.751"/>
</g>
<!-- linked_list -->
<g id="node18" class="node"><title>linked_list</title>
<polygon fill="#6e9086" stroke="#ffffff" points="432.5,-152 289.5,-152 289.5,-94 432.5,-94 432.5,-152"/>
<text text-anchor="middle" x="361" y="-119.2" font-family="Source Code Pro" font-size="16.00" fill="#ffffff">LinkedList&lt;E&gt;</text>
</g>
<!-- abstract_sequential_list&#45;&gt;linked_list -->
<g id="edge13" class="edge"><title>abstract_sequential_list&#45;&gt;linked_list</title>
<path fill="none" stroke="#484c7f" d="M361,-177.744C361,-169.204 361,-160.298 361,-152.248"/>
<polygon fill="none" stroke="#484c7f" points="357.5,-177.897 361,-187.897 364.5,-177.897 357.5,-177.897"/>
</g>
<!-- array_list&#45;&gt;serializable -->
<g id="edge26" class="edge"><title>array_list&#45;&gt;serializable</title>
<path fill="none" stroke="#484c7f" stroke-dasharray="5,2" d="M586.406,-96.7015C589.301,-95.7623 592.174,-94.8573 595,-94 648.904,-77.6467 709.951,-62.7101 759.954,-51.3872"/>
<polygon fill="none" stroke="#484c7f" points="760.814,-54.7812 769.802,-49.1714 759.278,-47.9519 760.814,-54.7812"/>
</g>
<!-- linked_list&#45;&gt;serializable -->
<g id="edge27" class="edge"><title>linked_list&#45;&gt;serializable</title>
<path fill="none" stroke="#484c7f" stroke-dasharray="5,2" d="M432.782,-96.6854C436.221,-95.7261 439.64,-94.8241 443,-94 549.824,-67.8029 674.776,-50.3489 760.053,-40.3769"/>
<polygon fill="none" stroke="#484c7f" points="760.46,-43.8532 769.992,-39.2275 759.656,-36.8995 760.46,-43.8532"/>
</g>
<!-- abstract_map&#45;&gt;map -->
<g id="edge21" class="edge"><title>abstract_map&#45;&gt;map</title>
<path fill="none" stroke="#484c7f" stroke-dasharray="5,2" d="M1127.11,-281.897C1128.88,-273.769 1130.84,-264.758 1132.71,-256.128"/>
<polygon fill="none" stroke="#484c7f" points="1136.15,-256.763 1134.86,-246.248 1129.31,-255.276 1136.15,-256.763"/>
</g>
<!-- enum_map -->
<g id="node20" class="node"><title>enum_map</title>
<polygon fill="#fab95b" stroke="#ffffff" points="1365,-246 1231,-246 1231,-188 1365,-188 1365,-246"/>
<text text-anchor="middle" x="1298" y="-213.2" font-family="Source Code Pro" font-size="16.00" fill="#ffffff">EnumMap&lt;K,V&gt;</text>
</g>
<!-- abstract_map&#45;&gt;enum_map -->
<g id="edge14" class="edge"><title>abstract_map&#45;&gt;enum_map</title>
<path fill="none" stroke="#484c7f" d="M1184.2,-277.149C1203.75,-266.99 1225.09,-255.896 1243.96,-246.089"/>
<polygon fill="none" stroke="#484c7f" points="1182.33,-274.18 1175.07,-281.897 1185.55,-280.391 1182.33,-274.18"/>
</g>
<!-- hash_map -->
<g id="node21" class="node"><title>hash_map</title>
<polygon fill="#fab95b" stroke="#ffffff" points="1517,-246 1383,-246 1383,-188 1517,-188 1517,-246"/>
<text text-anchor="middle" x="1450" y="-213.2" font-family="Source Code Pro" font-size="16.00" fill="#ffffff">HashMap&lt;K,V&gt;</text>
</g>
<!-- abstract_map&#45;&gt;hash_map -->
<g id="edge15" class="edge"><title>abstract_map&#45;&gt;hash_map</title>
<path fill="none" stroke="#484c7f" d="M1217.65,-288.077C1265.09,-276.677 1322.89,-261.832 1374,-246 1376.96,-245.085 1379.96,-244.12 1382.99,-243.121"/>
<polygon fill="none" stroke="#484c7f" points="1216.61,-284.728 1207.7,-290.456 1218.23,-291.536 1216.61,-284.728"/>
</g>
<!-- tree_map -->
<g id="node22" class="node"><title>tree_map</title>
<polygon fill="#fab95b" stroke="#ffffff" points="1051,-246 917,-246 917,-188 1051,-188 1051,-246"/>
<text text-anchor="middle" x="984" y="-213.2" font-family="Source Code Pro" font-size="16.00" fill="#ffffff">TreeMap&lt;K,V&gt;</text>
</g>
<!-- abstract_map&#45;&gt;tree_map -->
<g id="edge16" class="edge"><title>abstract_map&#45;&gt;tree_map</title>
<path fill="none" stroke="#484c7f" d="M1070.68,-276.208C1056.02,-266.363 1040.16,-255.713 1026.06,-246.248"/>
<polygon fill="none" stroke="#484c7f" points="1068.9,-279.228 1079.15,-281.897 1072.8,-273.416 1068.9,-279.228"/>
</g>
<!-- enum_map&#45;&gt;serializable -->
<g id="edge28" class="edge"><title>enum_map&#45;&gt;serializable</title>
<path fill="none" stroke="#484c7f" stroke-dasharray="5,2" d="M1262.13,-187.998C1225.32,-160.501 1165.47,-119.126 1108,-94 1061.77,-73.7889 1007.79,-58.8938 962.1,-48.585"/>
<polygon fill="none" stroke="#484c7f" points="962.703,-45.1339 952.183,-46.3896 961.19,-51.9684 962.703,-45.1339"/>
</g>
<!-- hash_map&#45;&gt;serializable -->
<g id="edge29" class="edge"><title>hash_map&#45;&gt;serializable</title>
<path fill="none" stroke="#484c7f" stroke-dasharray="5,2" d="M1395.42,-187.935C1340.31,-160.587 1252.11,-119.505 1172,-94 1103.34,-72.1377 1023.7,-55.9148 962.209,-45.2725"/>
<polygon fill="none" stroke="#484c7f" points="962.559,-41.7817 952.112,-43.547 961.38,-48.6817 962.559,-41.7817"/>
</g>
<!-- linked_hash_map -->
<g id="node23" class="node"><title>linked_hash_map</title>
<polygon fill="#fab95b" stroke="#ffffff" points="1546,-152 1354,-152 1354,-94 1546,-94 1546,-152"/>
<text text-anchor="middle" x="1450" y="-119.2" font-family="Source Code Pro" font-size="16.00" fill="#ffffff">LinkedHashMap&lt;K,V&gt;</text>
</g>
<!-- hash_map&#45;&gt;linked_hash_map -->
<g id="edge17" class="edge"><title>hash_map&#45;&gt;linked_hash_map</title>
<path fill="none" stroke="#484c7f" d="M1450,-177.744C1450,-169.204 1450,-160.298 1450,-152.248"/>
<polygon fill="none" stroke="#484c7f" points="1446.5,-177.897 1450,-187.897 1453.5,-177.897 1446.5,-177.897"/>
</g>
<!-- tree_map&#45;&gt;serializable -->
<g id="edge30" class="edge"><title>tree_map&#45;&gt;serializable</title>
<path fill="none" stroke="#484c7f" stroke-dasharray="5,2" d="M1051.16,-188.987C1066.24,-179.609 1080.32,-167.45 1089,-152 1101.62,-129.524 1104.57,-114.544 1089,-94 1073.01,-72.9095 1015.45,-56.8461 962.164,-46.0874"/>
<polygon fill="none" stroke="#484c7f" points="962.763,-42.6382 952.275,-44.1402 961.41,-49.5063 962.763,-42.6382"/>
</g>
</g>
</svg>
