<?xml version="1.0" encoding="UTF-8" standalone="no"?>
<!DOCTYPE svg PUBLIC "-//W3C//DTD SVG 1.1//EN"
 "http://www.w3.org/Graphics/SVG/1.1/DTD/svg11.dtd">
<!-- Generated by graphviz version 2.40.1 (20161225.0304)
 -->
<!-- Title: javaCollection Pages: 1 -->
<svg width="1152pt" height="448pt"
 viewBox="0.00 0.00 1152.00 448.39" xmlns="http://www.w3.org/2000/svg" xmlns:xlink="http://www.w3.org/1999/xlink">
<g id="graph0" class="graph" transform="scale(.7922 .7922) rotate(0) translate(4 562)">
<title>javaCollection</title>
<polygon fill="#ffffff" stroke="transparent" points="-4,4 -4,-562 1450.1758,-562 1450.1758,4 -4,4"/>
<!-- package -->
<g id="node1" class="node">
<title>package</title>
<text text-anchor="middle" x="35.125" y="-509.2" font-family="Helvetia" font-size="16.00" fill="#000000">java.util</text>
</g>
<!-- object -->
<g id="node3" class="node">
<title>object</title>
<polygon fill="#e4007c" stroke="#ffffff" points="920.3596,-543 789.8904,-543 789.8904,-485 920.3596,-485 920.3596,-543"/>
<text text-anchor="middle" x="855.125" y="-509.2" font-family="Helvetia" font-size="16.00" fill="#ffffff">java.lang.Object</text>
</g>
<!-- package&#45;&gt;object -->
<!-- generic_types -->
<g id="node2" class="node">
<title>generic_types</title>
<polygon fill="none" stroke="#8559a5" stroke-width="2" points="1392.5079,-558 1279.7421,-558 1279.7421,-470 1398.5079,-470 1398.5079,-552 1392.5079,-558"/>
<polyline fill="none" stroke="#8559a5" stroke-width="2" points="1392.5079,-558 1392.5079,-552 "/>
<polyline fill="none" stroke="#8559a5" stroke-width="2" points="1398.5079,-552 1392.5079,-552 "/>
<text text-anchor="middle" x="1339.125" y="-541.2" font-family="Helvetia" font-size="16.00" fill="#000000">Generic Types</text>
<text text-anchor="middle" x="1339.125" y="-525.2" font-family="Helvetia" font-size="16.00" fill="#000000">&#45;&#45;&#45;&#45;&#45;&#45;&#45;&#45;&#45;&#45;&#45;&#45;&#45;&#45;&#45;&#45;</text>
<text text-anchor="start" x="1287.6836" y="-509.2" font-family="Helvetia" font-size="16.00" fill="#000000">E: element</text>
<text text-anchor="start" x="1287.6836" y="-493.2" font-family="Helvetia" font-size="16.00" fill="#000000">K: key</text>
<text text-anchor="start" x="1287.6836" y="-477.2" font-family="Helvetia" font-size="16.00" fill="#000000">V: value</text>
</g>
<!-- object&#45;&gt;generic_types -->
<!-- abstract_collection -->
<g id="node9" class="node">
<title>abstract_collection</title>
<polygon fill="#096386" stroke="#ffffff" points="858.43,-434 683.82,-434 683.82,-376 858.43,-376 858.43,-434"/>
<text text-anchor="middle" x="771.125" y="-400.2" font-family="Helvetia" font-size="16.00" fill="#ffffff">AbstractCollection&lt;E&gt;</text>
</g>
<!-- object&#45;&gt;abstract_collection -->
<g id="edge3" class="edge">
<title>object&#45;&gt;abstract_collection</title>
<path fill="none" stroke="#484c7f" d="M826.4847,-476.8359C815.7789,-462.9437 803.7803,-447.3742 793.6976,-434.2906"/>
<polygon fill="none" stroke="#484c7f" points="823.7381,-479.0056 832.6145,-484.79 829.2827,-474.7327 823.7381,-479.0056"/>
</g>
<!-- abstract_map -->
<g id="node19" class="node">
<title>abstract_map</title>
<polygon fill="#fab95b" stroke="#ffffff" points="1116.4143,-340 965.8357,-340 965.8357,-282 1116.4143,-282 1116.4143,-340"/>
<text text-anchor="middle" x="1041.125" y="-306.2" font-family="Helvetia" font-size="16.00" fill="#ffffff">AbstractMap&lt;K,V&gt;</text>
</g>
<!-- object&#45;&gt;abstract_map -->
<g id="edge4" class="edge">
<title>object&#45;&gt;abstract_map</title>
<path fill="none" stroke="#484c7f" d="M888.7038,-477.3521C924.7858,-437.9724 981.3999,-376.1839 1014.5252,-340.031"/>
<polygon fill="none" stroke="#484c7f" points="885.9493,-475.1775 881.7743,-484.915 891.1105,-479.9064 885.9493,-475.1775"/>
</g>
<!-- collection -->
<g id="node4" class="node">
<title>collection</title>
<polygon fill="#00b7a8" stroke="#ffffff" points="898.7584,-340 783.4916,-340 783.4916,-282 898.7584,-282 898.7584,-340"/>
<text text-anchor="middle" x="841.125" y="-314.2" font-family="Helvetia" font-size="16.00" fill="#ffffff">&lt;&lt;Interface&gt;&gt;</text>
<text text-anchor="middle" x="841.125" y="-298.2" font-family="Helvetia" font-size="16.00" fill="#ffffff">Collection&lt;E&gt;</text>
</g>
<!-- set -->
<g id="node5" class="node">
<title>set</title>
<polygon fill="#00b7a8" stroke="#ffffff" points="647.7584,-246 532.4916,-246 532.4916,-188 647.7584,-188 647.7584,-246"/>
<text text-anchor="middle" x="590.125" y="-220.2" font-family="Helvetia" font-size="16.00" fill="#ffffff">&lt;&lt;Interface&gt;&gt;</text>
<text text-anchor="middle" x="590.125" y="-204.2" font-family="Helvetia" font-size="16.00" fill="#ffffff">Set&lt;E&gt;</text>
</g>
<!-- map -->
<g id="node7" class="node">
<title>map</title>
<polygon fill="#00b7a8" stroke="#ffffff" points="1123.7584,-246 1008.4916,-246 1008.4916,-188 1123.7584,-188 1123.7584,-246"/>
<text text-anchor="middle" x="1066.125" y="-220.2" font-family="Helvetia" font-size="16.00" fill="#ffffff">&lt;&lt;Interface&gt;&gt;</text>
<text text-anchor="middle" x="1066.125" y="-204.2" font-family="Helvetia" font-size="16.00" fill="#ffffff">Map&lt;K,V&gt;</text>
</g>
<!-- set&#45;&gt;map -->
<!-- list -->
<g id="node6" class="node">
<title>list</title>
<polygon fill="#00b7a8" stroke="#ffffff" points="253.7584,-246 138.4916,-246 138.4916,-188 253.7584,-188 253.7584,-246"/>
<text text-anchor="middle" x="196.125" y="-220.2" font-family="Helvetia" font-size="16.00" fill="#ffffff">&lt;&lt;Interface&gt;&gt;</text>
<text text-anchor="middle" x="196.125" y="-204.2" font-family="Helvetia" font-size="16.00" fill="#ffffff">List&lt;E&gt;</text>
</g>
<!-- list&#45;&gt;set -->
<!-- serializable -->
<g id="node8" class="node">
<title>serializable</title>
<polygon fill="#00b7a8" stroke="#ffffff" points="893.8126,-58 750.4374,-58 750.4374,0 893.8126,0 893.8126,-58"/>
<text text-anchor="middle" x="822.125" y="-32.2" font-family="Helvetia" font-size="16.00" fill="#ffffff">&lt;&lt;Interface&gt;&gt;</text>
<text text-anchor="middle" x="822.125" y="-16.2" font-family="Helvetia" font-size="16.00" fill="#ffffff">Serializable&lt;K,V&gt;</text>
</g>
<!-- abstract_collection&#45;&gt;collection -->
<g id="edge18" class="edge">
<title>abstract_collection&#45;&gt;collection</title>
<path fill="none" stroke="#484c7f" stroke-dasharray="5,2" d="M792.8897,-375.7731C799.3425,-367.1079 806.4992,-357.4975 813.2814,-348.3899"/>
<polygon fill="none" stroke="#484c7f" points="816.2082,-350.3197 819.3737,-340.2088 810.5939,-346.1388 816.2082,-350.3197"/>
</g>
<!-- abstract_set -->
<g id="node10" class="node">
<title>abstract_set</title>
<polygon fill="#930077" stroke="#ffffff" points="765.1875,-340 637.0625,-340 637.0625,-282 765.1875,-282 765.1875,-340"/>
<text text-anchor="middle" x="701.125" y="-306.2" font-family="Helvetia" font-size="16.00" fill="#ffffff">AbstractSet&lt;E&gt;</text>
</g>
<!-- abstract_collection&#45;&gt;abstract_set -->
<g id="edge5" class="edge">
<title>abstract_collection&#45;&gt;abstract_set</title>
<path fill="none" stroke="#484c7f" d="M743.2673,-367.5911C736.4846,-358.4828 729.3281,-348.8727 722.8763,-340.2088"/>
<polygon fill="none" stroke="#484c7f" points="740.5804,-369.8431 749.3603,-375.7731 746.1947,-365.6622 740.5804,-369.8431"/>
</g>
<!-- abstract_list -->
<g id="node15" class="node">
<title>abstract_list</title>
<polygon fill="#6e9086" stroke="#ffffff" points="568.5703,-340 439.6797,-340 439.6797,-282 568.5703,-282 568.5703,-340"/>
<text text-anchor="middle" x="504.125" y="-306.2" font-family="Helvetia" font-size="16.00" fill="#ffffff">AbstractList&lt;E&gt;</text>
</g>
<!-- abstract_collection&#45;&gt;abstract_list -->
<g id="edge6" class="edge">
<title>abstract_collection&#45;&gt;abstract_list</title>
<path fill="none" stroke="#484c7f" d="M678.8493,-372.5134C642.5146,-359.7214 601.6626,-345.3391 568.6013,-333.6995"/>
<polygon fill="none" stroke="#484c7f" points="677.8782,-375.8821 688.473,-375.9016 680.2028,-369.2793 677.8782,-375.8821"/>
</g>
<!-- abstract_set&#45;&gt;set -->
<g id="edge19" class="edge">
<title>abstract_set&#45;&gt;set</title>
<path fill="none" stroke="#484c7f" stroke-dasharray="5,2" d="M666.6124,-281.7731C655.7536,-272.5774 643.6378,-262.3171 632.3087,-252.7231"/>
<polygon fill="none" stroke="#484c7f" points="634.5095,-250.0004 624.6163,-246.2088 629.9857,-255.3423 634.5095,-250.0004"/>
</g>
<!-- enum_set -->
<g id="node11" class="node">
<title>enum_set</title>
<polygon fill="#930077" stroke="#ffffff" points="688.797,-152 577.453,-152 577.453,-94 688.797,-94 688.797,-152"/>
<text text-anchor="middle" x="633.125" y="-118.2" font-family="Helvetia" font-size="16.00" fill="#ffffff">EnumSet&lt;E&gt;</text>
</g>
<!-- abstract_set&#45;&gt;enum_set -->
<g id="edge7" class="edge">
<title>abstract_set&#45;&gt;enum_set</title>
<path fill="none" stroke="#484c7f" d="M687.3217,-272.0952C678.7018,-247.8795 667.3387,-216.1009 657.125,-188 652.8514,-176.242 648.0891,-163.3099 643.9406,-152.0981"/>
<polygon fill="none" stroke="#484c7f" points="684.0693,-273.3954 690.7182,-281.6442 690.6645,-271.0495 684.0693,-273.3954"/>
</g>
<!-- hash_set -->
<g id="node12" class="node">
<title>hash_set</title>
<polygon fill="#930077" stroke="#ffffff" points="810.3519,-246 703.8981,-246 703.8981,-188 810.3519,-188 810.3519,-246"/>
<text text-anchor="middle" x="757.125" y="-212.2" font-family="Helvetia" font-size="16.00" fill="#ffffff">HashSet&lt;E&gt;</text>
</g>
<!-- abstract_set&#45;&gt;hash_set -->
<g id="edge8" class="edge">
<title>abstract_set&#45;&gt;hash_set</title>
<path fill="none" stroke="#484c7f" d="M723.7438,-273.0328C729.0708,-264.091 734.6679,-254.6959 739.724,-246.2088"/>
<polygon fill="none" stroke="#484c7f" points="720.648,-271.3907 718.5368,-281.7731 726.6617,-274.9734 720.648,-271.3907"/>
</g>
<!-- tree_set -->
<g id="node14" class="node">
<title>tree_set</title>
<polygon fill="#930077" stroke="#ffffff" points="1018.813,-152 917.437,-152 917.437,-94 1018.813,-94 1018.813,-152"/>
<text text-anchor="middle" x="968.125" y="-118.2" font-family="Helvetia" font-size="16.00" fill="#ffffff">TreeSet&lt;E&gt;</text>
</g>
<!-- abstract_set&#45;&gt;tree_set -->
<g id="edge9" class="edge">
<title>abstract_set&#45;&gt;tree_set</title>
<path fill="none" stroke="#484c7f" d="M774.0169,-278.1255C789.8891,-269.0514 805.878,-258.2704 819.125,-246 841.7339,-225.058 834.7931,-209.2371 857.125,-188 867.0774,-178.5356 893.0905,-163.1606 917.4335,-149.7396"/>
<polygon fill="none" stroke="#484c7f" points="772.2834,-275.0847 765.2292,-282.9897 775.6734,-281.2091 772.2834,-275.0847"/>
</g>
<!-- abstract_set&#45;&gt;abstract_map -->
<!-- enum_set&#45;&gt;serializable -->
<g id="edge22" class="edge">
<title>enum_set&#45;&gt;serializable</title>
<path fill="none" stroke="#484c7f" stroke-dasharray="5,2" d="M688.809,-95.3053C709.3887,-85.0699 732.9411,-73.356 754.4672,-62.6499"/>
<polygon fill="none" stroke="#484c7f" points="756.1589,-65.7176 763.554,-58.1305 753.0416,-59.45 756.1589,-65.7176"/>
</g>
<!-- hash_set&#45;&gt;serializable -->
<g id="edge23" class="edge">
<title>hash_set&#45;&gt;serializable</title>
<path fill="none" stroke="#484c7f" stroke-dasharray="5,2" d="M742.5956,-187.9523C731.8108,-162.0615 721.309,-123.7699 736.125,-94 741.7178,-82.7623 750.2831,-72.9514 759.8795,-64.591"/>
<polygon fill="none" stroke="#484c7f" points="762.1993,-67.216 767.7596,-58.1976 757.7889,-61.7802 762.1993,-67.216"/>
</g>
<!-- linked_hash_set -->
<g id="node13" class="node">
<title>linked_hash_set</title>
<polygon fill="#930077" stroke="#ffffff" points="899.0001,-152 745.2499,-152 745.2499,-94 899.0001,-94 899.0001,-152"/>
<text text-anchor="middle" x="822.125" y="-118.2" font-family="Helvetia" font-size="16.00" fill="#ffffff">LinkedHashSet&lt;E&gt;</text>
</g>
<!-- hash_set&#45;&gt;linked_hash_set -->
<g id="edge10" class="edge">
<title>hash_set&#45;&gt;linked_hash_set</title>
<path fill="none" stroke="#484c7f" d="M783.1858,-179.3121C789.4267,-170.2868 795.9975,-160.7843 801.9274,-152.2088"/>
<polygon fill="none" stroke="#484c7f" points="780.1439,-177.5573 777.3351,-187.7731 785.9015,-181.5387 780.1439,-177.5573"/>
</g>
<!-- linked_hash_set&#45;&gt;serializable -->
<g id="edge24" class="edge">
<title>linked_hash_set&#45;&gt;serializable</title>
<path fill="none" stroke="#484c7f" stroke-dasharray="5,2" d="M822.125,-93.7731C822.125,-85.7268 822.125,-76.8655 822.125,-68.3487"/>
<polygon fill="none" stroke="#484c7f" points="825.6251,-68.2088 822.125,-58.2088 818.6251,-68.2089 825.6251,-68.2088"/>
</g>
<!-- tree_set&#45;&gt;serializable -->
<g id="edge25" class="edge">
<title>tree_set&#45;&gt;serializable</title>
<path fill="none" stroke="#484c7f" stroke-dasharray="5,2" d="M922.73,-93.7731C907.8273,-84.1782 891.1246,-73.4244 875.6755,-63.4777"/>
<polygon fill="none" stroke="#484c7f" points="877.5438,-60.5179 867.241,-58.0473 873.7544,-66.4036 877.5438,-60.5179"/>
</g>
<!-- abstract_list&#45;&gt;list -->
<g id="edge20" class="edge">
<title>abstract_list&#45;&gt;list</title>
<path fill="none" stroke="#484c7f" stroke-dasharray="5,2" d="M439.6753,-296.3139C392.9858,-285.0588 328.339,-268.2083 263.579,-245.9896"/>
<polygon fill="none" stroke="#484c7f" points="264.6203,-242.6463 254.0255,-242.6726 262.3243,-249.259 264.6203,-242.6463"/>
</g>
<!-- abstract_list&#45;&gt;abstract_set -->
<!-- abstract_sequential_list -->
<g id="node16" class="node">
<title>abstract_sequential_list</title>
<polygon fill="#6e9086" stroke="#ffffff" points="476.188,-246 272.062,-246 272.062,-188 476.188,-188 476.188,-246"/>
<text text-anchor="middle" x="374.125" y="-212.2" font-family="Helvetia" font-size="16.00" fill="#ffffff">AbstractSequentialList&lt;E&gt;</text>
</g>
<!-- abstract_list&#45;&gt;abstract_sequential_list -->
<g id="edge11" class="edge">
<title>abstract_list&#45;&gt;abstract_sequential_list</title>
<path fill="none" stroke="#484c7f" d="M455.4591,-275.8108C441.9714,-266.0582 427.4803,-255.58 414.5202,-246.2088"/>
<polygon fill="none" stroke="#484c7f" points="453.5504,-278.7498 463.7048,-281.7731 457.6521,-273.0774 453.5504,-278.7498"/>
</g>
<!-- array_list -->
<g id="node17" class="node">
<title>array_list</title>
<polygon fill="#6e9086" stroke="#ffffff" points="559.6105,-152 450.6395,-152 450.6395,-94 559.6105,-94 559.6105,-152"/>
<text text-anchor="middle" x="505.125" y="-118.2" font-family="Helvetia" font-size="16.00" fill="#ffffff">ArrayList&lt;E&gt;</text>
</g>
<!-- abstract_list&#45;&gt;array_list -->
<g id="edge12" class="edge">
<title>abstract_list&#45;&gt;array_list</title>
<path fill="none" stroke="#484c7f" d="M504.3347,-271.5685C504.5244,-235.9118 504.7993,-184.2305 504.9698,-152.1687"/>
<polygon fill="none" stroke="#484c7f" points="500.8346,-271.6065 504.2813,-281.625 507.8345,-271.6438 500.8346,-271.6065"/>
</g>
<!-- linked_list -->
<g id="node18" class="node">
<title>linked_list</title>
<polygon fill="#6e9086" stroke="#ffffff" points="433.032,-152 315.218,-152 315.218,-94 433.032,-94 433.032,-152"/>
<text text-anchor="middle" x="374.125" y="-118.2" font-family="Helvetia" font-size="16.00" fill="#ffffff">LinkedList&lt;E&gt;</text>
</g>
<!-- abstract_sequential_list&#45;&gt;linked_list -->
<g id="edge13" class="edge">
<title>abstract_sequential_list&#45;&gt;linked_list</title>
<path fill="none" stroke="#484c7f" d="M374.125,-177.6321C374.125,-169.1148 374.125,-160.2539 374.125,-152.2088"/>
<polygon fill="none" stroke="#484c7f" points="370.6251,-177.773 374.125,-187.7731 377.6251,-177.7731 370.6251,-177.773"/>
</g>
<!-- array_list&#45;&gt;serializable -->
<g id="edge26" class="edge">
<title>array_list&#45;&gt;serializable</title>
<path fill="none" stroke="#484c7f" stroke-dasharray="5,2" d="M559.5103,-97.2344C562.4045,-96.0931 565.2881,-95.0066 568.125,-94 624.6295,-73.9509 690.2312,-57.3255 740.6097,-45.9083"/>
<polygon fill="none" stroke="#484c7f" points="741.4841,-49.2992 750.4753,-43.6948 739.9516,-42.469 741.4841,-49.2992"/>
</g>
<!-- linked_list&#45;&gt;serializable -->
<g id="edge27" class="edge">
<title>linked_list&#45;&gt;serializable</title>
<path fill="none" stroke="#484c7f" stroke-dasharray="5,2" d="M433.1636,-96.8598C436.1716,-95.8313 439.1701,-94.8698 442.125,-94 542.5922,-64.4276 662.2108,-46.7222 740.0344,-37.4251"/>
<polygon fill="none" stroke="#484c7f" points="740.7354,-40.8669 750.2585,-36.2234 739.9182,-33.9147 740.7354,-40.8669"/>
</g>
<!-- abstract_map&#45;&gt;map -->
<g id="edge21" class="edge">
<title>abstract_map&#45;&gt;map</title>
<path fill="none" stroke="#484c7f" stroke-dasharray="5,2" d="M1048.8981,-281.7731C1051.0616,-273.6384 1053.4466,-264.6707 1055.7346,-256.0681"/>
<polygon fill="none" stroke="#484c7f" points="1059.1688,-256.7725 1058.3567,-246.2088 1052.404,-254.9733 1059.1688,-256.7725"/>
</g>
<!-- enum_map -->
<g id="node20" class="node">
<title>enum_map</title>
<polygon fill="#fab95b" stroke="#ffffff" points="1276.024,-246 1142.226,-246 1142.226,-188 1276.024,-188 1276.024,-246"/>
<text text-anchor="middle" x="1209.125" y="-212.2" font-family="Helvetia" font-size="16.00" fill="#ffffff">EnumMap&lt;K,V&gt;</text>
</g>
<!-- abstract_map&#45;&gt;enum_map -->
<g id="edge14" class="edge">
<title>abstract_map&#45;&gt;enum_map</title>
<path fill="none" stroke="#484c7f" d="M1102.0908,-276.8882C1120.1605,-266.7778 1139.7713,-255.805 1157.2107,-246.0473"/>
<polygon fill="none" stroke="#484c7f" points="1100.3782,-273.8358 1093.3603,-281.7731 1103.7962,-279.9446 1100.3782,-273.8358"/>
</g>
<!-- hash_map -->
<g id="node21" class="node">
<title>hash_map</title>
<polygon fill="#fab95b" stroke="#ffffff" points="1422.5781,-246 1293.6719,-246 1293.6719,-188 1422.5781,-188 1422.5781,-246"/>
<text text-anchor="middle" x="1358.125" y="-212.2" font-family="Helvetia" font-size="16.00" fill="#ffffff">HashMap&lt;K,V&gt;</text>
</g>
<!-- abstract_map&#45;&gt;hash_map -->
<g id="edge15" class="edge">
<title>abstract_map&#45;&gt;hash_map</title>
<path fill="none" stroke="#484c7f" d="M1126.1619,-290.9626C1173.3838,-279.1838 1232.9563,-263.2444 1285.125,-246 1287.8441,-245.1012 1290.6083,-244.1547 1293.3919,-243.1744"/>
<polygon fill="none" stroke="#484c7f" points="1125.1441,-287.6089 1116.2798,-293.4119 1126.8281,-294.4033 1125.1441,-287.6089"/>
</g>
<!-- tree_map -->
<g id="node22" class="node">
<title>tree_map</title>
<polygon fill="#fab95b" stroke="#ffffff" points="990.0391,-246 866.2109,-246 866.2109,-188 990.0391,-188 990.0391,-246"/>
<text text-anchor="middle" x="928.125" y="-212.2" font-family="Helvetia" font-size="16.00" fill="#ffffff">TreeMap&lt;K,V&gt;</text>
</g>
<!-- abstract_map&#45;&gt;tree_map -->
<g id="edge16" class="edge">
<title>abstract_map&#45;&gt;tree_map</title>
<path fill="none" stroke="#484c7f" d="M998.1586,-275.258C986.6243,-265.6631 974.2905,-255.4032 963.2378,-246.2088"/>
<polygon fill="none" stroke="#484c7f" points="996.0644,-278.0686 1005.9905,-281.7731 1000.541,-272.6872 996.0644,-278.0686"/>
</g>
<!-- enum_map&#45;&gt;serializable -->
<g id="edge28" class="edge">
<title>enum_map&#45;&gt;serializable</title>
<path fill="none" stroke="#484c7f" stroke-dasharray="5,2" d="M1178.5249,-187.9712C1147.7772,-160.2399 1097.9272,-119.0613 1048.125,-94 1002.6921,-71.1373 947.958,-55.1334 903.7343,-44.7269"/>
<polygon fill="none" stroke="#484c7f" points="904.4195,-41.2932 893.8893,-42.4613 902.8496,-48.1149 904.4195,-41.2932"/>
</g>
<!-- hash_map&#45;&gt;serializable -->
<g id="edge29" class="edge">
<title>hash_map&#45;&gt;serializable</title>
<path fill="none" stroke="#484c7f" stroke-dasharray="5,2" d="M1307.4968,-187.9879C1257.6463,-160.4672 1178.6532,-119.6182 1106.125,-94 1039.6502,-70.5199 961.3734,-53.3394 903.8515,-42.5591"/>
<polygon fill="none" stroke="#484c7f" points="904.1915,-39.0628 893.7219,-40.6866 902.919,-45.9461 904.1915,-39.0628"/>
</g>
<!-- linked_hash_map -->
<g id="node23" class="node">
<title>linked_hash_map</title>
<polygon fill="#fab95b" stroke="#ffffff" points="1446.2266,-152 1270.0234,-152 1270.0234,-94 1446.2266,-94 1446.2266,-152"/>
<text text-anchor="middle" x="1358.125" y="-118.2" font-family="Helvetia" font-size="16.00" fill="#ffffff">LinkedHashMap&lt;K,V&gt;</text>
</g>
<!-- hash_map&#45;&gt;linked_hash_map -->
<g id="edge17" class="edge">
<title>hash_map&#45;&gt;linked_hash_map</title>
<path fill="none" stroke="#484c7f" d="M1358.125,-177.6321C1358.125,-169.1148 1358.125,-160.2539 1358.125,-152.2088"/>
<polygon fill="none" stroke="#484c7f" points="1354.6251,-177.773 1358.125,-187.7731 1361.6251,-177.7731 1354.6251,-177.773"/>
</g>
<!-- tree_map&#45;&gt;serializable -->
<g id="edge30" class="edge">
<title>tree_map&#45;&gt;serializable</title>
<path fill="none" stroke="#484c7f" stroke-dasharray="5,2" d="M990.0928,-190.1195C1005.2308,-180.412 1019.5325,-167.8333 1028.125,-152 1040.4204,-129.3435 1043.3654,-114.79 1028.125,-94 1012.873,-73.1943 954.5186,-55.9782 903.7944,-44.5025"/>
<polygon fill="none" stroke="#484c7f" points="904.2862,-41.0268 893.7663,-42.2846 902.7745,-47.8616 904.2862,-41.0268"/>
</g>
</g>
</svg>
