<?xml version="1.0" encoding="UTF-8" standalone="no"?>
<!DOCTYPE svg PUBLIC "-//W3C//DTD SVG 1.1//EN"
 "http://www.w3.org/Graphics/SVG/1.1/DTD/svg11.dtd">
<!-- Generated by graphviz version 2.38.0 (20140413.2041)
 -->
<!-- Title: G Pages: 1 -->
<svg width="666pt" height="283pt"
 viewBox="0.00 0.00 666.00 283.25" xmlns="http://www.w3.org/2000/svg" xmlns:xlink="http://www.w3.org/1999/xlink">
<g id="graph0" class="graph" transform="scale(1 1) rotate(0) translate(4 279.249)">
<title>G</title>
<polygon fill="#f4f6f6" stroke="none" points="-4,4 -4,-279.249 662,-279.249 662,4 -4,4"/>
<!-- module -->
<g id="node1" class="node"><title>module</title>
<polygon fill="#bbded6" stroke="#bbded6" points="67,-180 64,-184 43,-184 40,-180 0,-180 0,-144 67,-144 67,-180"/>
<text text-anchor="middle" x="33.5" y="-158.3" font-family="Helvetia" font-size="14.00" fill="#252525">module</text>
</g>
<!-- service -->
<g id="node2" class="node"><title>service</title>
<polygon fill="#ffb6b9" stroke="#ffb6b9" points="321,-180 231,-180 231,-144 321,-144 321,-180"/>
<text text-anchor="middle" x="276" y="-158.3" font-family="Helvetia" font-size="14.00" fill="#ffffff">service</text>
</g>
<!-- module&#45;&gt;service -->
<g id="edge2" class="edge"><title>module:e&#45;&gt;service:w</title>
<path fill="none" stroke="#666666" stroke-width="1.5" d="M67,-162C136.33,-162 156.201,-162 220.701,-162"/>
<polygon fill="#666666" stroke="#666666" stroke-width="1.5" points="221,-165.5 231,-162 221,-158.5 221,-165.5"/>
</g>
<!-- controller -->
<g id="node3" class="node"><title>controller</title>
<polygon fill="#ffb6b9" stroke="#ffb6b9" points="321,-252 231,-252 231,-216 321,-216 321,-252"/>
<text text-anchor="middle" x="276" y="-230.3" font-family="Helvetia" font-size="14.00" fill="#ffffff">controller</text>
</g>
<!-- module&#45;&gt;controller -->
<g id="edge1" class="edge"><title>module:e&#45;&gt;controller:sw</title>
<path fill="none" stroke="#666666" stroke-width="1.5" d="M67,-162C77.1349,-162 75.9338,-171.47 85,-176 142.375,-204.667 179.995,-171.955 224.499,-209.121"/>
<polygon fill="#666666" stroke="#666666" stroke-width="1.5" points="222.264,-211.82 232,-216 226.996,-206.661 222.264,-211.82"/>
</g>
<!-- domain -->
<g id="node6" class="node"><title>domain</title>
<polygon fill="#fae3d9" stroke="#fae3d9" points="194,-108 104,-108 104,-72 194,-72 194,-108"/>
<text text-anchor="middle" x="149" y="-86.3" font-family="Helvetia" font-size="14.00" fill="#252525">domain</text>
</g>
<!-- module&#45;&gt;domain -->
<g id="edge3" class="edge"><title>module:e&#45;&gt;domain:w</title>
<path fill="none" stroke="#666666" stroke-width="1.5" d="M67,-162C98.9024,-162 75.0314,-105.389 94.2977,-92.5625"/>
<polygon fill="#666666" stroke="#666666" stroke-width="1.5" points="95.2253,-95.9376 104,-90 93.4378,-89.1697 95.2253,-95.9376"/>
</g>
<!-- repository -->
<g id="node4" class="node"><title>repository</title>
<polygon fill="#ffb6b9" stroke="#ffb6b9" points="321,-108 231,-108 231,-72 321,-72 321,-108"/>
<text text-anchor="middle" x="276" y="-86.3" font-family="Helvetia" font-size="14.00" fill="#ffffff">repo</text>
</g>
<!-- service&#45;&gt;repository -->
<g id="edge13" class="edge"><title>service&#45;&gt;repository</title>
<path fill="none" stroke="#6b48ff" stroke-width="1.2" d="M276,-143.587C276,-134.412 276,-123.216 276,-113.435"/>
<polygon fill="#6b48ff" stroke="#6b48ff" stroke-width="1.2" points="276,-108.169 278.25,-113.169 276.1,-110.669 276.1,-113.169 276,-113.169 275.9,-113.169 275.9,-110.669 273.75,-113.169 276,-108.169 276,-108.169"/>
<text text-anchor="middle" x="265.5" y="-122.3" font-family="Times New Roman,serif" font-size="14.00" fill="#6b48ff">calls &#160;&#160;</text>
</g>
<!-- service_impl -->
<g id="node7" class="node"><title>service_impl</title>
<polygon fill="#fae3d9" stroke="#fae3d9" points="448,-212 358,-212 358,-176 448,-176 448,-212"/>
<text text-anchor="middle" x="403" y="-190.3" font-family="Helvetia" font-size="14.00" fill="#252525">impl</text>
</g>
<!-- service&#45;&gt;service_impl -->
<g id="edge6" class="edge"><title>service:e&#45;&gt;service_impl:w</title>
<path fill="none" stroke="#666666" stroke-width="1.5" d="M321,-162C338.665,-162 337.697,-183.125 348.375,-191.047"/>
<polygon fill="#666666" stroke="#666666" stroke-width="1.5" points="347.413,-194.413 358,-194 349.467,-187.721 347.413,-194.413"/>
</g>
<!-- NameService -->
<g id="node10" class="node"><title>NameService</title>
<polygon fill="#8ac6d1" stroke="#8ac6d1" points="497,-132 658,-132 658,-156 497,-156 485,-144 497,-132"/>
<text text-anchor="middle" x="571.5" y="-140.3" font-family="Helvetia" font-size="14.00" fill="#ffffff">NameService.java</text>
</g>
<!-- service&#45;&gt;NameService -->
<g id="edge9" class="edge"><title>service:se&#45;&gt;NameService:w</title>
<path fill="none" stroke="#666666" stroke-width="1.2" stroke-dasharray="5,2" d="M324.007,-141.097C374.099,-94.4534 413.535,-144 485,-144"/>
<ellipse fill="#666666" stroke="#666666" stroke-width="1.2" cx="322.439" cy="-142.611" rx="2.00002" ry="2.00002"/>
</g>
<!-- controller&#45;&gt;service -->
<g id="edge12" class="edge"><title>controller&#45;&gt;service</title>
<path fill="none" stroke="#6b48ff" stroke-width="1.2" d="M276,-215.587C276,-206.412 276,-195.216 276,-185.435"/>
<polygon fill="#6b48ff" stroke="#6b48ff" stroke-width="1.2" points="276,-180.169 278.25,-185.169 276.1,-182.669 276.1,-185.169 276,-185.169 275.9,-185.169 275.9,-182.669 273.75,-185.169 276,-180.169 276,-180.169"/>
<text text-anchor="middle" x="265.5" y="-194.3" font-family="Times New Roman,serif" font-size="14.00" fill="#6b48ff">calls &#160;&#160;</text>
</g>
<!-- NameController -->
<g id="node12" class="node"><title>NameController</title>
<polygon fill="#8ac6d1" stroke="#8ac6d1" points="497,-240 658,-240 658,-264 497,-264 485,-252 497,-240"/>
<text text-anchor="middle" x="571.5" y="-248.3" font-family="Helvetia" font-size="14.00" fill="#ffffff">NameController.java</text>
</g>
<!-- controller&#45;&gt;NameController -->
<g id="edge7" class="edge"><title>controller:ne&#45;&gt;NameController:w</title>
<path fill="none" stroke="#666666" stroke-width="1.2" stroke-dasharray="5,2" d="M323.025,-254.921C373.422,-301.849 413.099,-252 485,-252"/>
<ellipse fill="#666666" stroke="#666666" stroke-width="1.2" cx="321.439" cy="-253.389" rx="2.00002" ry="2.00002"/>
</g>
<!-- entity -->
<g id="node5" class="node"><title>entity</title>
<polygon fill="#ffb6b9" stroke="#ffb6b9" points="321,-36 231,-36 231,-0 321,-0 321,-36"/>
<text text-anchor="middle" x="276" y="-14.3" font-family="Helvetia" font-size="14.00" fill="#ffffff">entity</text>
</g>
<!-- repository&#45;&gt;entity -->
<g id="edge14" class="edge"><title>repository&#45;&gt;entity</title>
<path fill="none" stroke="#6b48ff" stroke-width="1.2" d="M276,-71.5867C276,-62.4115 276,-51.2158 276,-41.435"/>
<polygon fill="#6b48ff" stroke="#6b48ff" stroke-width="1.2" points="276,-36.1686 278.25,-41.1686 276.1,-38.6686 276.1,-41.1686 276,-41.1686 275.9,-41.1686 275.9,-38.6686 273.75,-41.1687 276,-36.1686 276,-36.1686"/>
<text text-anchor="middle" x="265.5" y="-50.3" font-family="Times New Roman,serif" font-size="14.00" fill="#6b48ff">calls &#160;&#160;</text>
</g>
<!-- NameRepository -->
<g id="node9" class="node"><title>NameRepository</title>
<polygon fill="#8ac6d1" stroke="#8ac6d1" points="497,-78 658,-78 658,-102 497,-102 485,-90 497,-78"/>
<text text-anchor="middle" x="571.5" y="-86.3" font-family="Helvetia" font-size="14.00" fill="#ffffff">NameRepository.java</text>
</g>
<!-- repository&#45;&gt;NameRepository -->
<g id="edge10" class="edge"><title>repository:e&#45;&gt;NameRepository:w</title>
<path fill="none" stroke="#666666" stroke-width="1.2" stroke-dasharray="5,2" d="M325.209,-90C394.622,-90 413.535,-90 485,-90"/>
<ellipse fill="#666666" stroke="#666666" stroke-width="1.2" cx="323" cy="-90" rx="2" ry="2"/>
</g>
<!-- Name -->
<g id="node8" class="node"><title>Name</title>
<polygon fill="#8ac6d1" stroke="#8ac6d1" points="497,-6 658,-6 658,-30 497,-30 485,-18 497,-6"/>
<text text-anchor="middle" x="571.5" y="-14.3" font-family="Helvetia" font-size="14.00" fill="#ffffff">Name.java</text>
</g>
<!-- entity&#45;&gt;Name -->
<g id="edge11" class="edge"><title>entity:e&#45;&gt;Name:w</title>
<path fill="none" stroke="#666666" stroke-width="1.2" stroke-dasharray="5,2" d="M325.209,-18C394.622,-18 413.535,-18 485,-18"/>
<ellipse fill="#666666" stroke="#666666" stroke-width="1.2" cx="323" cy="-18" rx="2" ry="2"/>
</g>
<!-- domain&#45;&gt;repository -->
<g id="edge5" class="edge"><title>domain:e&#45;&gt;repository:w</title>
<path fill="none" stroke="#666666" stroke-width="1.5" d="M194,-90C206.462,-90 211.841,-90 220.872,-90"/>
<polygon fill="#666666" stroke="#666666" stroke-width="1.5" points="221,-93.5001 231,-90 221,-86.5001 221,-93.5001"/>
</g>
<!-- domain&#45;&gt;entity -->
<g id="edge4" class="edge"><title>domain:e&#45;&gt;entity:w</title>
<path fill="none" stroke="#666666" stroke-width="1.5" d="M194,-90C225.902,-90 202.031,-33.3885 221.298,-20.5625"/>
<polygon fill="#666666" stroke="#666666" stroke-width="1.5" points="222.225,-23.9376 231,-18 220.438,-17.1697 222.225,-23.9376"/>
</g>
<!-- NameServiceImpl -->
<g id="node11" class="node"><title>NameServiceImpl</title>
<polygon fill="#8ac6d1" stroke="#8ac6d1" points="497,-186 658,-186 658,-210 497,-210 485,-198 497,-186"/>
<text text-anchor="middle" x="571.5" y="-194.3" font-family="Helvetia" font-size="14.00" fill="#ffffff">NameServiceImpl.java</text>
</g>
<!-- service_impl&#45;&gt;NameServiceImpl -->
<g id="edge8" class="edge"><title>service_impl:e&#45;&gt;NameServiceImpl:w</title>
<path fill="none" stroke="#666666" stroke-width="1.2" stroke-dasharray="5,2" d="M452.001,-194.084C465.307,-194.658 469.881,-198 485,-198"/>
<ellipse fill="#666666" stroke="#666666" stroke-width="1.2" cx="450" cy="-194.042" rx="2" ry="2"/>
</g>
</g>
</svg>
